<svg width="160" height="45" viewBox="0 0 160 45" fill="none" xmlns="http://www.w3.org/2000/svg">
    <path d="M36.9904 40.2533V31.2452H38.3645V32.526C39.0261 31.5364 39.9818 31.0416 41.2315 31.0416C41.7744 31.0416 42.272 31.1406 42.7244 31.3385C43.1824 31.5308 43.5245 31.7852 43.7507 32.1019C43.9769 32.4186 44.1352 32.7946 44.2257 33.23C44.2822 33.5128 44.3105 34.0076 44.3105 34.7144V40.2533H42.7837V34.7738C42.7837 34.1518 42.7244 33.6881 42.6056 33.3827C42.4869 33.0717 42.2748 32.8257 41.9694 32.6448C41.6697 32.4582 41.3163 32.3648 40.9092 32.3648C40.2589 32.3648 39.6962 32.5713 39.2212 32.984C38.7519 33.3968 38.5172 34.18 38.5172 35.3336V40.2533H36.9904Z" fill="#0094F1"/>
    <path d="M52.8266 37.3524L54.4043 37.5474C54.1555 38.4692 53.6946 39.1845 53.0217 39.6934C52.3488 40.2024 51.4892 40.4568 50.4431 40.4568C49.1255 40.4568 48.0794 40.0525 47.3047 39.2439C46.5357 38.4296 46.1511 37.2902 46.1511 35.8256C46.1511 34.3101 46.5413 33.1339 47.3217 32.297C48.102 31.4601 49.1142 31.0416 50.3583 31.0416C51.5628 31.0416 52.5467 31.4516 53.3101 32.2715C54.0735 33.0915 54.4552 34.2451 54.4552 35.7323C54.4552 35.8227 54.4523 35.9585 54.4467 36.1394H47.7288C47.7854 37.129 48.0653 37.8867 48.5686 38.4126C49.0718 38.9385 49.6995 39.2015 50.4516 39.2015C51.0114 39.2015 51.4892 39.0544 51.8851 38.7604C52.2809 38.4663 52.5947 37.997 52.8266 37.3524ZM47.8136 34.884H52.8436C52.7757 34.1263 52.5834 33.558 52.2668 33.1791C51.7805 32.591 51.15 32.297 50.3753 32.297C49.6741 32.297 49.0831 32.5317 48.6025 33.001C48.1275 33.4704 47.8645 34.098 47.8136 34.884Z" fill="#0094F1"/>
    <path d="M57.9922 40.2533L55.2355 31.2452H56.8132L58.7811 38.3787C58.8037 38.2826 58.9592 37.6634 59.2476 36.5211L60.6811 31.2452H62.2503L63.5989 36.4702L64.0485 38.1921L64.5659 36.4532L66.1096 31.2452H67.594L64.7779 40.2533H63.1918L61.7583 34.8586L61.4105 33.3233L59.5869 40.2533H57.9922Z" fill="#0094F1"/>
    <path d="M73.1498 35.7492C73.1498 34.0811 73.6135 32.8455 74.5409 32.0425C75.3156 31.3753 76.2599 31.0416 77.3739 31.0416C78.6123 31.0416 79.6245 31.4488 80.4105 32.2631C81.1966 33.0717 81.5896 34.1913 81.5896 35.622C81.5896 36.7812 81.4143 37.6945 81.0637 38.3617C80.7187 39.0233 80.2126 39.5379 79.5454 39.9055C78.8838 40.273 78.16 40.4568 77.3739 40.4568C76.1129 40.4568 75.0922 40.0525 74.3119 39.2439C73.5372 38.4352 73.1498 37.2704 73.1498 35.7492ZM74.719 35.7492C74.719 36.9028 74.9707 37.768 75.4739 38.3448C75.9772 38.9159 76.6105 39.2015 77.3739 39.2015C78.1317 39.2015 78.7622 38.9131 79.2655 38.3363C79.7687 37.7595 80.0204 36.8802 80.0204 35.6983C80.0204 34.5843 79.7659 33.7418 79.257 33.1707C78.7537 32.5939 78.126 32.3055 77.3739 32.3055C76.6105 32.3055 75.9772 32.591 75.4739 33.1622C74.9707 33.7333 74.719 34.5957 74.719 35.7492Z" fill="#0094F1"/>
    <path d="M83.3878 43.7055V31.2452H84.7789V32.4157C85.1068 31.9577 85.4772 31.6156 85.89 31.3894C86.3028 31.1576 86.8033 31.0416 87.3914 31.0416C88.1604 31.0416 88.839 31.2396 89.4271 31.6354C90.0152 32.0312 90.4591 32.591 90.7588 33.3149C91.0585 34.033 91.2083 34.8218 91.2083 35.6814C91.2083 36.6031 91.0415 37.4343 90.7079 38.1751C90.3799 38.9102 89.8992 39.4757 89.2659 39.8716C88.6382 40.2617 87.9766 40.4568 87.2811 40.4568C86.7722 40.4568 86.3141 40.3494 85.907 40.1345C85.5055 39.9196 85.1747 39.6482 84.9146 39.3202V43.7055H83.3878ZM84.7704 35.8001C84.7704 36.9594 85.005 37.816 85.4744 38.3702C85.9437 38.9244 86.512 39.2015 87.1793 39.2015C87.8579 39.2015 88.4375 38.9159 88.9181 38.3448C89.4044 37.768 89.6476 36.8774 89.6476 35.6729C89.6476 34.525 89.4101 33.6654 88.9351 33.0943C88.4658 32.5232 87.9031 32.2376 87.2472 32.2376C86.5969 32.2376 86.0201 32.543 85.5168 33.1537C85.0192 33.7588 84.7704 34.6409 84.7704 35.8001Z" fill="#0094F1"/>
    <path d="M93.0574 43.7055V31.2452H94.4485V32.4157C94.7765 31.9577 95.1469 31.6156 95.5597 31.3894C95.9725 31.1576 96.4729 31.0416 97.061 31.0416C97.8301 31.0416 98.5086 31.2396 99.0967 31.6354C99.6848 32.0312 100.129 32.591 100.428 33.3149C100.728 34.033 100.878 34.8218 100.878 35.6814C100.878 36.6031 100.711 37.4343 100.378 38.1751C100.05 38.9102 99.5689 39.4757 98.9356 39.8716C98.3079 40.2617 97.6463 40.4568 96.9507 40.4568C96.4418 40.4568 95.9838 40.3494 95.5766 40.1345C95.1751 39.9196 94.8443 39.6482 94.5842 39.3202V43.7055H93.0574ZM94.44 35.8001C94.44 36.9594 94.6747 37.816 95.144 38.3702C95.6134 38.9244 96.1817 39.2015 96.849 39.2015C97.5275 39.2015 98.1071 38.9159 98.5878 38.3448C99.0741 37.768 99.3173 36.8774 99.3173 35.6729C99.3173 34.525 99.0798 33.6654 98.6048 33.0943C98.1354 32.5232 97.5728 32.2376 96.9168 32.2376C96.2665 32.2376 95.6897 32.543 95.1865 33.1537C94.6888 33.7588 94.44 34.6409 94.44 35.8001Z" fill="#0094F1"/>
    <path d="M102.159 35.7492C102.159 34.0811 102.622 32.8455 103.55 32.0425C104.325 31.3753 105.269 31.0416 106.383 31.0416C107.621 31.0416 108.633 31.4488 109.42 32.2631C110.206 33.0717 110.599 34.1913 110.599 35.622C110.599 36.7812 110.423 37.6945 110.073 38.3617C109.728 39.0233 109.222 39.5379 108.554 39.9055C107.893 40.273 107.169 40.4568 106.383 40.4568C105.122 40.4568 104.101 40.0525 103.321 39.2439C102.546 38.4352 102.159 37.2704 102.159 35.7492ZM103.728 35.7492C103.728 36.9028 103.98 37.768 104.483 38.3448C104.986 38.9159 105.619 39.2015 106.383 39.2015C107.141 39.2015 107.771 38.9131 108.274 38.3363C108.778 37.7595 109.029 36.8802 109.029 35.6983C109.029 34.5843 108.775 33.7418 108.266 33.1707C107.763 32.5939 107.135 32.3055 106.383 32.3055C105.619 32.3055 104.986 32.591 104.483 33.1622C103.98 33.7333 103.728 34.5957 103.728 35.7492Z" fill="#0094F1"/>
    <path d="M112.38 40.2533V31.2452H113.754V32.6108C114.104 31.9718 114.427 31.5506 114.721 31.347C115.021 31.1434 115.349 31.0416 115.705 31.0416C116.219 31.0416 116.742 31.2056 117.274 31.5336L116.748 32.9501C116.375 32.7296 116.002 32.6193 115.628 32.6193C115.295 32.6193 114.995 32.7211 114.729 32.9247C114.464 33.1226 114.274 33.3997 114.161 33.7559C113.991 34.2988 113.907 34.8925 113.907 35.5372V40.2533H112.38Z" fill="#0094F1"/>
    <path d="M121.515 38.8876L121.736 40.2363C121.306 40.3268 120.921 40.372 120.582 40.372C120.028 40.372 119.598 40.2844 119.293 40.1091C118.987 39.9338 118.772 39.7047 118.648 39.422C118.524 39.1336 118.461 38.5314 118.461 37.6153V32.4327H117.342V31.2452H118.461V29.0144L119.98 28.0983V31.2452H121.515V32.4327H119.98V37.7001C119.98 38.1355 120.005 38.4155 120.056 38.5399C120.113 38.6643 120.2 38.7632 120.319 38.8367C120.443 38.9102 120.619 38.947 120.845 38.947C121.015 38.947 121.238 38.9272 121.515 38.8876Z" fill="#0094F1"/>
    <path d="M128.92 40.2533V38.93C128.219 39.9479 127.266 40.4568 126.061 40.4568C125.53 40.4568 125.032 40.355 124.569 40.1515C124.111 39.9479 123.768 39.6934 123.542 39.3881C123.322 39.0771 123.166 38.6982 123.076 38.2515C123.014 37.9518 122.982 37.4768 122.982 36.8265V31.2452H124.509V36.2412C124.509 37.0385 124.54 37.5757 124.603 37.8528C124.699 38.2543 124.902 38.571 125.213 38.8028C125.524 39.029 125.909 39.1421 126.367 39.1421C126.825 39.1421 127.255 39.0262 127.656 38.7943C128.058 38.5568 128.34 38.2373 128.504 37.8358C128.674 37.4287 128.759 36.8406 128.759 36.0716V31.2452H130.286V40.2533H128.92Z" fill="#0094F1"/>
    <path d="M132.686 40.2533V31.2452H134.06V32.526C134.722 31.5364 135.677 31.0416 136.927 31.0416C137.47 31.0416 137.968 31.1406 138.42 31.3385C138.878 31.5308 139.22 31.7852 139.446 32.1019C139.673 32.4186 139.831 32.7946 139.921 33.23C139.978 33.5128 140.006 34.0076 140.006 34.7144V40.2533H138.479V34.7738C138.479 34.1518 138.42 33.6881 138.301 33.3827C138.182 33.0717 137.97 32.8257 137.665 32.6448C137.365 32.4582 137.012 32.3648 136.605 32.3648C135.954 32.3648 135.392 32.5713 134.917 32.984C134.448 33.3968 134.213 34.18 134.213 35.3336V40.2533H132.686Z" fill="#0094F1"/>
    <path d="M142.364 29.5742V27.8184H143.891V29.5742H142.364ZM142.364 40.2533V31.2452H143.891V40.2533H142.364Z" fill="#0094F1"/>
    <path d="M149.557 38.8876L149.778 40.2363C149.348 40.3268 148.963 40.372 148.624 40.372C148.07 40.372 147.64 40.2844 147.335 40.1091C147.029 39.9338 146.814 39.7047 146.69 39.422C146.566 39.1336 146.503 38.5314 146.503 37.6153V32.4327H145.384V31.2452H146.503V29.0144L148.022 28.0983V31.2452H149.557V32.4327H148.022V37.7001C148.022 38.1355 148.047 38.4155 148.098 38.5399C148.155 38.6643 148.242 38.7632 148.361 38.8367C148.485 38.9102 148.661 38.947 148.887 38.947C149.057 38.947 149.28 38.9272 149.557 38.8876Z" fill="#0094F1"/>
    <path d="M150.991 43.7225L150.821 42.289C151.155 42.3794 151.446 42.4247 151.695 42.4247C152.034 42.4247 152.305 42.3681 152.509 42.255C152.712 42.1419 152.879 41.9836 153.009 41.78C153.105 41.6274 153.261 41.2485 153.476 40.6434C153.504 40.5586 153.549 40.4342 153.612 40.2702L150.193 31.2452H151.839L153.713 36.4617C153.956 37.1233 154.174 37.8189 154.366 38.5483C154.542 37.8471 154.751 37.1629 154.994 36.4957L156.92 31.2452H158.446L155.02 40.4059C154.652 41.3955 154.366 42.0769 154.163 42.4501C153.891 42.9534 153.58 43.321 153.23 43.5528C152.879 43.7903 152.461 43.9091 151.974 43.9091C151.68 43.9091 151.352 43.8469 150.991 43.7225Z" fill="#0094F1"/>
    <path d="M91.8303 25.0904C91.029 25.649 89.9727 26.0557 88.6614 26.3106C87.3501 26.5656 86.0023 26.6932 84.618 26.6932C82.9912 26.6932 81.431 26.4503 79.9374 25.9647C78.444 25.4789 77.1205 24.7018 75.9671 23.6334C75.7324 23.416 75.5077 23.1862 75.2926 22.9436V12.1994H72.2311C72.3412 10.2575 72.7183 8.58676 73.3626 7.18732C74.1397 5.49951 75.1354 4.13963 76.3496 3.10767C77.5637 2.07559 78.9114 1.32894 80.3928 0.867489C81.874 0.406037 83.3311 0.175373 84.7639 0.175373C86.3424 0.175373 87.6718 0.272502 88.7525 0.46677C89.833 0.661039 90.7255 0.89183 91.4297 1.15889L90.3733 5.67565C89.7663 5.40846 89.0559 5.21432 88.2424 5.09284C87.4288 4.97136 86.403 4.91074 85.1646 4.91074C84.0717 4.91074 83.0821 5.08675 82.1958 5.4389C81.3095 5.79104 80.5507 6.3192 79.9193 7.02336C79.2879 7.72765 78.7962 8.61402 78.444 9.6825C78.0919 10.7509 77.9159 12.0014 77.9159 13.4342C77.9159 14.697 78.0736 15.8505 78.3894 16.8947C78.7051 17.9388 79.1786 18.8374 79.81 19.5901C80.4414 20.343 81.2427 20.9258 82.214 21.3386C83.1854 21.7514 84.3146 21.9578 85.6017 21.9578C86.7915 21.9578 87.7933 21.8485 88.6068 21.6301C89.4202 21.4114 90.1426 21.1322 90.774 20.7922L91.8303 25.0904ZM37.2963 0.800024C38.4015 0.605628 39.6271 0.453462 40.9728 0.343393C42.3422 0.231296 43.7117 0.175373 45.0812 0.175373C46.4756 0.175373 47.8824 0.281134 49.3016 0.492776C50.721 0.704418 51.9969 1.1277 53.1298 1.76262C54.2629 2.39755 55.1903 3.28152 55.9124 4.41442C56.6345 5.54732 56.9956 7.04758 56.9956 8.91494C56.9956 10.5584 56.6843 11.959 56.0618 13.1167C55.4394 14.2746 54.6115 15.2145 53.5781 15.9366C52.5448 16.6587 51.3684 17.1879 50.0487 17.5239C48.729 17.8602 47.3719 18.0281 45.9775 18.0281C45.8531 18.0281 45.6415 18.0281 45.3427 18.0281C45.0438 18.0281 44.7263 18.022 44.3903 18.0094C44.0541 17.997 43.7366 17.9784 43.4378 17.9535C43.1391 17.9285 42.915 17.9037 42.7655 17.8788V26.6932H37.2962C37.2962 20.7391 37.2963 6.25769 37.2963 0.800024ZM45.4547 5.0307C44.9319 5.0307 44.4275 5.04313 43.9421 5.06799C43.4565 5.09297 43.0644 5.14281 42.7655 5.21737V12.9861C42.8652 13.0109 43.027 13.0358 43.2512 13.0607C43.4752 13.0856 43.7117 13.1044 43.9608 13.1167C44.2097 13.1291 44.4401 13.1417 44.6517 13.1541C44.8634 13.1665 45.0314 13.1728 45.1559 13.1728C45.878 13.1728 46.6 13.123 47.3221 13.0234C48.0442 12.9238 48.6854 12.7122 49.2456 12.3885C49.8058 12.0647 50.2603 11.6228 50.6089 11.0625C50.9574 10.5023 51.1317 9.74921 51.1317 8.80297C51.1317 8.00611 50.9699 7.36497 50.6462 6.87942C50.3224 6.39388 49.8929 6.01422 49.3577 5.74031C48.8223 5.46641 48.2123 5.27962 47.5276 5.18008C46.8429 5.08041 46.1519 5.0307 45.4547 5.0307ZM64.2957 12.7786H74.7133V24.2162C74.1549 24.6533 73.5417 25.0237 72.8739 25.3272C72.2061 25.6307 71.5018 25.8857 70.7613 26.092C70.0206 26.2985 69.2618 26.4502 68.4846 26.5474C67.7075 26.6445 66.9426 26.6932 66.1899 26.6932C64.4414 26.6932 62.8083 26.4382 61.2907 25.9282C59.7728 25.4183 58.4494 24.623 57.3202 23.5423C56.191 22.4618 55.3047 21.0836 54.6612 19.408C54.3135 18.5026 54.0597 17.505 53.8998 16.4155L53.9084 16.4095C54.4673 16.0189 54.9673 15.5732 55.4084 15.0725C55.8502 14.5709 56.2378 14.0101 56.5709 13.3906C56.906 12.767 57.1576 12.0775 57.3255 11.3224C57.4916 10.5746 57.5748 9.77204 57.5748 8.91494C57.5748 7.94233 57.4784 7.05594 57.2858 6.25579C57.1281 5.59982 56.9053 5.00661 56.6175 4.47618C57.0139 4.00154 57.4424 3.56949 57.903 3.18045C59.1537 2.12414 60.55 1.35924 62.092 0.885619C63.6341 0.41212 65.1699 0.175373 66.6998 0.175373C68.2781 0.175373 69.6684 0.290769 70.8706 0.521431C72.0726 0.752094 73.0136 0.976666 73.6934 1.19528L72.5644 5.67565C71.9086 5.45703 71.1679 5.27494 70.3423 5.12923C69.5167 4.98353 68.4846 4.91062 67.2462 4.91062C66.1048 4.91062 65.0606 5.06241 64.1135 5.36598C63.1665 5.66956 62.3409 6.16132 61.6367 6.84126C60.9324 7.5212 60.386 8.40746 59.9975 9.50029C59.6089 10.5931 59.4147 11.9165 59.4147 13.4706C59.4147 14.9762 59.6089 16.2633 59.9975 17.3318C60.386 18.4003 60.9143 19.2806 61.5821 19.9727C62.2498 20.6647 63.0208 21.1686 63.895 21.4843C64.7692 21.8 65.692 21.9578 66.6634 21.9578C67.3191 21.9578 67.9808 21.8851 68.6485 21.7392C69.3164 21.5935 69.881 21.3629 70.3423 21.0472V16.6397L64.2957 16.0569V12.7786Z" fill="#0094F1"/>
    <path fill-rule="evenodd" clip-rule="evenodd" d="M117.47 26.3919V21.7367H107.188C107.458 21.2846 107.81 20.8142 108.249 20.3378C108.682 19.8551 109.718 18.8897 111.356 17.4297L111.414 17.3781L111.432 17.3616L111.471 17.3266L111.508 17.2937L111.528 17.2754L111.582 17.2267L111.585 17.2245L111.697 17.1237L111.729 17.0938L111.752 17.0736L111.802 17.0281L111.807 17.0239L111.915 16.9254L111.969 16.8764L112.015 16.8341L112.022 16.8279L112.075 16.7797L112.085 16.7703L112.127 16.7316L112.222 16.6445L112.23 16.6365L112.281 16.5893L112.289 16.5822L112.332 16.5425L112.356 16.5206L112.482 16.4037L112.487 16.3986L112.53 16.3579L112.551 16.3385L112.579 16.3125L112.675 16.2226L112.678 16.2196L112.722 16.178L112.74 16.1609L112.802 16.1028L112.815 16.0898L112.861 16.0461L112.863 16.0449L112.907 16.0026L112.922 15.9878L112.952 15.9595L112.982 15.9311L112.997 15.9167L113.04 15.8749L113.041 15.8741L113.085 15.8319L113.098 15.8191L113.129 15.7899L113.172 15.7482L113.212 15.7093L113.214 15.7067L113.298 15.6248L113.322 15.6014L113.34 15.5842L113.376 15.5481L113.381 15.5441L113.421 15.504L113.43 15.4954L113.461 15.4643L113.482 15.4431L113.501 15.425L113.534 15.3914L113.54 15.3858L113.579 15.347L113.586 15.3401L113.617 15.3083L113.636 15.2894L113.655 15.2702L113.686 15.2392L113.693 15.2321L113.73 15.1945L113.735 15.1895L113.766 15.157L113.783 15.1402L113.803 15.1199L113.83 15.0913L113.838 15.083L113.874 15.0465L113.877 15.0432L113.909 15.0102L113.968 14.9481L113.977 14.9385L114.011 14.903L114.013 14.9014L114.044 14.8679L114.057 14.8551L114.077 14.8331L114.1 14.8093L114.11 14.7984L114.141 14.7642L114.142 14.7639L114.173 14.7302L114.183 14.7192L114.204 14.6965C114.415 14.4677 114.595 14.2589 114.745 14.0695C115.693 12.8966 116.384 11.7786 116.817 10.7095C117.25 9.63419 117.47 8.51017 117.47 7.3249C117.47 5.84582 117.087 4.53919 116.321 3.40503L116.306 3.38334L116.261 3.31843L116.246 3.29687L116.216 3.25401L116.2 3.2327L116.17 3.18996L116.154 3.16866L116.106 3.10513L116.09 3.08396L116.089 3.08167L116.074 3.06291L116.058 3.04198L116.042 3.02094L116.04 3.01916L116.009 2.97908L115.992 2.95829L115.976 2.9375L115.959 2.91669L115.925 2.87536L115.924 2.87359L115.893 2.83707L115.891 2.83402L115.856 2.79293L115.855 2.79103L115.804 2.73168L115.787 2.71203L115.786 2.71126L115.768 2.6911L115.733 2.65129L115.717 2.63353L115.663 2.5733L115.662 2.57293L115.66 2.57013L115.604 2.51028L115.598 2.50406L115.585 2.49037L115.536 2.43889L115.533 2.43572L115.529 2.4309L115.471 2.37193L115.467 2.36788L115.403 2.30333L115.4 2.30054L115.393 2.29382L115.333 2.23561L115.331 2.23372L115.273 2.17792L115.262 2.16739L115.191 2.10159C113.666 0.702519 111.576 0 108.914 0C106.485 0 104.464 0.60474 102.845 1.80827C101.226 3.01788 100.265 5.00953 99.9576 7.78319L105.117 8.28408C105.218 6.81184 105.582 5.76099 106.215 5.13178C106.856 4.49634 107.709 4.17869 108.789 4.17869C109.875 4.17869 110.728 4.47808 111.343 5.08282C111.965 5.68769 112.272 6.54909 112.272 7.67311C112.272 8.69353 111.915 9.71979 111.205 10.7583C110.678 11.5098 109.253 12.9455 106.925 15.0593C104.037 17.6803 102.098 19.7817 101.119 21.364C100.14 22.9463 99.5496 24.6203 99.355 26.3919H117.47ZM129.048 23.6949C128.763 24.0459 128.45 24.3895 128.126 24.6448L126.354 25.7466C126.274 25.7959 126.184 25.8256 126.094 25.855C126.059 25.8665 126.024 25.878 125.99 25.8905C125.842 25.9447 125.691 25.9941 125.538 26.0394L125.535 26.0403C124.942 26.2148 124.307 26.3237 123.63 26.3672C123.405 26.3816 123.175 26.389 122.941 26.389C121.022 26.389 119.376 25.8627 118.001 24.8106V21.2058H115.177C114.661 19.6678 114.347 17.7443 114.233 15.4365C114.613 15.0443 114.922 14.6986 115.16 14.3991C115.645 13.7996 116.066 13.2094 116.424 12.6285C116.788 12.0387 117.083 11.4655 117.308 10.9086V10.9065C117.538 10.3367 117.711 9.75428 117.826 9.15804C117.942 8.55887 118.001 7.94829 118.001 7.3249C118.001 6.21216 117.796 5.18528 117.385 4.24513C117.186 3.78761 116.938 3.35253 116.643 2.9399C116.705 2.85608 116.769 2.77429 116.834 2.69415C118.296 0.89805 120.33 0 122.941 0C123.177 0 123.408 0.00747867 123.634 0.0223151L123.721 0.0284078L123.744 0.0301787L123.835 0.0375345L123.848 0.0387976L123.935 0.0467974L123.964 0.0495837L124.042 0.0575711L124.072 0.0609889L124.146 0.0694964L124.181 0.0738059L124.259 0.083688L124.264 0.0843319C124.426 0.105762 124.585 0.131499 124.742 0.161172L124.774 0.167128L124.849 0.182224L124.87 0.186409L124.95 0.20314L124.972 0.208093L125.051 0.225839L125.071 0.230408L125.148 0.248538L125.172 0.254506L125.248 0.273268L125.273 0.279732L125.344 0.298629L125.374 0.306876L125.445 0.326405C125.533 0.351513 125.621 0.378143 125.707 0.406168L125.728 0.41288L125.793 0.434563L125.823 0.444581L125.887 0.466773L125.919 0.478066L125.985 0.502029L126.009 0.511031L126.074 0.535514L126.107 0.548194L126.165 0.571017L126.204 0.586868L126.253 0.606769L126.296 0.624774L126.352 0.648625L126.369 0.655721C126.423 0.679307 126.477 0.703397 126.53 0.728251C126.559 0.741566 126.588 0.755134 126.616 0.768956L126.671 0.79584L126.706 0.812967L126.742 0.83148L126.798 0.859628L126.838 0.880556L126.879 0.902748L126.934 0.932418L126.966 0.949656L127.019 0.97934L127.051 0.997853L127.103 1.02777L127.142 1.05085L127.183 1.07532L127.227 1.10196L127.271 1.12922L127.324 1.16244L127.349 1.17829L127.412 1.21963L127.433 1.23269L127.516 1.28913L127.519 1.29065C127.544 1.3079 127.569 1.32552 127.594 1.34314L127.599 1.34644L127.63 1.36889L127.68 1.4049L127.711 1.42722L127.761 1.46463L127.796 1.49139L127.837 1.5227L127.875 1.55213L127.923 1.58966L127.949 1.6107L127.998 1.65053L128.034 1.6802L128.068 1.70873L128.11 1.74399L128.153 1.78126L128.184 1.80853L128.24 1.85836L128.258 1.87421C128.283 1.89704 128.308 1.92 128.333 1.94308L128.334 1.94408C128.358 1.96576 128.381 1.98733 128.404 2.00927L128.406 2.01205L128.436 2.04071L128.482 2.08523L128.505 2.10793L128.554 2.15737L128.581 2.18489L128.624 2.2294L128.657 2.26364L128.696 2.30511L128.723 2.33326L128.77 2.38474L128.795 2.41264L128.839 2.4621L128.863 2.4886L128.908 2.54033L128.934 2.5709L128.998 2.64609L129.004 2.65369L129.067 2.73079C129.083 2.74963 129.176 2.87376 129.257 2.98063C129.315 3.0572 129.366 3.12492 129.377 3.13873L129.396 3.16612C129.413 3.18972 129.429 3.21353 129.445 3.23746L129.45 3.24361L129.468 3.27112L129.479 3.28659L129.52 3.34835L129.541 3.37954L129.551 3.39515L129.594 3.46172L129.622 3.50572L129.652 3.55365L129.662 3.56975L129.672 3.58586L129.701 3.63443L129.711 3.65065L129.731 3.68325L129.74 3.69961C130.428 4.85609 130.934 6.30625 131.26 8.04935L131.268 8.0945L131.291 8.21877L131.298 8.26036L131.321 8.3963L131.333 8.46744L131.353 8.58791L131.359 8.62925L131.384 8.79105L131.386 8.79879L131.386 8.80019L131.387 8.80982L131.411 8.97124L131.416 9.01018L131.44 9.18061L131.441 9.18631L131.461 9.34394L131.465 9.37386L131.467 9.39428L131.486 9.5448L131.489 9.56927L131.49 9.58258L131.491 9.58855L131.51 9.75936L131.513 9.78269L131.53 9.93942L131.534 9.98584L131.551 10.1518L131.552 10.1678L131.554 10.1889L131.569 10.3504L131.573 10.3969L131.588 10.5686L131.588 10.5773L131.604 10.7767L131.605 10.7925L131.619 10.9866L131.619 10.9942L131.619 10.995L131.62 11.0056L131.633 11.207L131.634 11.2207L131.645 11.421L131.645 11.4283L131.656 11.6371L131.657 11.656L131.666 11.8552L131.666 11.8709L131.673 12.0504L131.674 12.0755L131.674 12.0836L131.681 12.2871L131.681 12.2978L131.682 12.3223L131.686 12.5051L131.687 12.5221L131.691 12.7331L131.691 12.7486L131.692 12.7821L131.694 12.9549L131.694 12.9685L131.695 12.9771L131.695 13.0035L131.696 13.2026L131.696 13.2127C131.697 13.2882 131.697 13.3641 131.697 13.4403C131.697 13.5902 131.696 13.7386 131.695 13.8858L131.694 13.9318C131.692 14.0694 131.69 14.2061 131.687 14.3415L131.686 14.3891L131.681 14.5575L131.681 14.5816L131.68 14.5952L131.674 14.8038V14.8065L131.666 15.0021L131.665 15.0361L131.654 15.2693L131.646 15.4342L131.643 15.4781L131.634 15.6411L131.631 15.6965L131.619 15.8836L131.618 15.8924L131.606 16.0579L131.601 16.125L131.588 16.3012L131.586 16.3253L131.573 16.4681L131.566 16.5481L131.557 16.6541L131.555 16.6704L131.549 16.7365L131.534 16.8816L131.529 16.937L131.515 17.0642L131.503 17.1709L131.489 17.2979L131.482 17.3495L131.471 17.4445L131.457 17.5556L131.455 17.5673L131.443 17.6562V17.6565L131.433 17.7345L131.419 17.8327L131.418 17.8416L131.407 17.9203L131.392 18.0249L131.381 18.0943L131.365 18.1961L131.344 18.3282L131.335 18.384L131.312 18.5215L131.297 18.6057L131.283 18.6837L131.282 18.6894L131.267 18.7726L131.267 18.7733L131.252 18.8555L131.236 18.9379C131.215 19.0434 131.194 19.1481 131.173 19.2514L131.168 19.2736L131.138 19.4136C130.699 21.4107 130.002 22.5186 129.048 23.6949ZM129.459 24.5083C129.015 25.0541 128.521 25.5227 127.978 25.9142C127.96 26.0361 127.923 26.3272 127.916 26.3919H146.03V21.7367H135.749C136.019 21.2846 136.37 20.8142 136.81 20.3378C137.09 20.0256 137.622 19.5115 138.406 18.7922L138.427 18.7738L138.441 18.7605L138.447 18.7552L138.467 18.7367L138.499 18.7075L138.508 18.699L138.55 18.6611L138.558 18.6539L138.613 18.6037L138.617 18.5996L138.634 18.5843L138.655 18.5649L138.677 18.5453L138.678 18.5444L138.698 18.5257L138.72 18.5059L138.739 18.4888L138.742 18.4861L138.764 18.4663L138.786 18.4463L138.801 18.4322L138.808 18.4263L138.83 18.4061L138.864 18.3749L138.875 18.3654L138.897 18.3451L138.92 18.3244L138.928 18.3169L138.966 18.2832L138.989 18.2624L138.993 18.2582L139.012 18.2415L139.058 18.1995L139.059 18.1989L139.082 18.1784L139.105 18.1572L139.126 18.1388L139.129 18.1357L139.153 18.1143L139.177 18.0929L139.193 18.0779L139.249 18.0277L139.262 18.0164L139.298 17.984L139.322 17.9619L139.331 17.954L139.396 17.8952L139.401 17.8911L139.421 17.8728L139.446 17.8503L139.472 17.8276L139.472 17.8274L139.497 17.805L139.522 17.7822L139.544 17.7629L139.548 17.7594L139.554 17.7541L139.617 17.6977L139.625 17.6901L139.677 17.6436L139.691 17.6318L139.703 17.6201L139.756 17.5732L139.765 17.5651L139.783 17.5495L139.809 17.5257L139.917 17.4297L139.929 17.4192L139.941 17.4084L139.953 17.3979L139.976 17.3765L139.988 17.366L139.993 17.3616L140 17.3555L140.011 17.3448L140.035 17.3238L140.047 17.3133L140.059 17.3027L140.068 17.2937L140.07 17.2922L140.082 17.2818L140.094 17.2713L140.105 17.2609L140.117 17.2504L140.128 17.24L140.14 17.2296L140.143 17.2267L140.151 17.219L140.186 17.1879L140.198 17.1776L140.217 17.16L140.22 17.1568L140.243 17.1363L140.255 17.1259L140.278 17.1053L140.29 17.0938L140.311 17.0746L140.323 17.0644L140.345 17.0438L140.357 17.0337L140.363 17.0281L140.368 17.0235L140.379 17.0132L140.39 17.0031L140.413 16.9829L140.424 16.9728L140.435 16.9629L140.435 16.9626L140.446 16.9525L140.457 16.9424L140.468 16.9323L140.479 16.9223L140.49 16.9122L140.501 16.9022L140.506 16.8982L140.512 16.8923L140.534 16.8721L140.545 16.8622L140.567 16.8422L140.576 16.8341L140.578 16.8323L140.589 16.8223L140.599 16.8124L140.61 16.8024L140.621 16.7926L140.632 16.7826L140.643 16.7728C141.89 15.6298 142.782 14.7301 143.306 14.0695C144.254 12.8966 144.945 11.7786 145.378 10.7095C145.558 10.2615 145.701 9.80501 145.807 9.33912L145.811 9.32161L145.814 9.30856L145.821 9.27799L145.823 9.26912L145.834 9.21662L145.841 9.18594L145.845 9.16399L145.856 9.11124L145.859 9.09362L145.866 9.06281L145.866 9.05836L145.877 9.00561L145.877 9.00117L145.883 8.97023L145.886 8.9526L145.889 8.93942L145.894 8.90847L145.896 8.8996L145.905 8.84647L145.91 8.81553L145.914 8.79334L145.915 8.78434L145.92 8.75327L145.922 8.73995L145.925 8.7222L145.93 8.69113L145.93 8.68669L145.938 8.63317L145.939 8.62874L145.943 8.59754L145.946 8.57966L145.947 8.56623L145.952 8.53503L145.953 8.52603L145.956 8.5037L145.96 8.47238L145.966 8.41849L145.967 8.40961L145.971 8.37817L145.978 8.31527L145.978 8.3107L145.981 8.28382L145.984 8.25669L145.984 8.25224L145.988 8.22068L145.989 8.20253L145.991 8.1891L145.993 8.1574L145.994 8.14839L145.996 8.12582L145.999 8.09412L146.003 8.03971L146.007 7.98531L146.009 7.96706L146.011 7.93536L146.011 7.93067L146.013 7.9034L146.014 7.87614L146.017 7.82136L146.018 7.80766L146.02 7.77571L146.02 7.76657L146.021 7.74375L146.023 7.71166L146.024 7.67959L146.025 7.65663L146.025 7.6475L146.026 7.61542L146.026 7.6016L146.027 7.58321L146.028 7.55113L146.028 7.54644L146.028 7.51893L146.029 7.49115L146.029 7.48658L146.029 7.45437L146.03 7.43586L146.03 7.3897L146.03 7.38044L146.03 7.35725V7.3249C146.03 5.24171 145.271 3.50053 143.752 2.10159C143.731 2.08206 143.709 2.06252 143.688 2.04337L143.644 2.00482L143.619 1.98277L143.546 1.92012L143.516 1.89476L143.475 1.86039L143.446 1.83655L143.404 1.80219L143.374 1.77823L143.329 1.74285L143.302 1.72192L143.231 1.66752L143.228 1.6651L143.154 1.61007L143.147 1.60501L143.084 1.55935L143.046 1.53209L143.012 1.50812L142.966 1.4768L142.938 1.45727L142.894 1.42785L142.861 1.40566L142.817 1.37662L142.789 1.35861L142.74 1.32717L142.736 1.32463L142.67 1.28342L142.663 1.27923L142.589 1.2346L142.586 1.23269L142.515 1.19073L142.511 1.18844L142.47 1.16486L142.43 1.14202L142.388 1.11806L142.351 1.0979L142.274 1.05606L142.22 1.02752L142.198 1.01572L142.136 0.984021L142.127 0.979587L142.056 0.944084L141.979 0.905918L141.978 0.905782L141.898 0.868123L141.838 0.840347L141.813 0.829066L141.756 0.803456L141.73 0.791915L141.671 0.766553L141.644 0.755136L141.579 0.72788L141.498 0.694655L141.472 0.684376L141.411 0.660414L141.4 0.656105C141.325 0.627192 141.249 0.599167 141.173 0.572157L141.152 0.564925L141.092 0.544009L141.062 0.533991L140.985 0.508245L140.983 0.507354C140.926 0.48884 140.869 0.470836 140.812 0.453337L140.802 0.45029C140.335 0.30852 139.841 0.200104 139.319 0.12516L139.316 0.124653C139.057 0.0876249 138.791 0.0588327 138.519 0.0382899L138.501 0.0369029L138.406 0.0303025C138.104 0.0101401 137.794 0 137.475 0C135.046 0 133.025 0.60474 131.406 1.80827C130.889 2.19402 130.44 2.65928 130.057 3.20392C130.698 4.21508 131.197 5.44638 131.554 6.89718C131.648 7.28331 131.733 7.68529 131.808 8.10261L133.678 8.28408C133.778 6.81184 134.142 5.76099 134.776 5.13178C135.416 4.49634 136.27 4.17869 137.35 4.17869C137.775 4.17869 138.164 4.22459 138.518 4.31665L138.545 4.32389L138.545 4.32401L138.572 4.33137L138.599 4.33897L138.641 4.35114L138.653 4.35482L138.68 4.36293L138.682 4.3637L138.706 4.3713L138.708 4.37193L138.733 4.37993L138.759 4.38868L138.811 4.40668L138.837 4.41607L138.888 4.43521L138.913 4.44511L138.964 4.46539L138.989 4.47579L139.014 4.48644L139.037 4.49659L139.038 4.49723L139.063 4.50813L139.087 4.51929L139.096 4.52373C139.117 4.53362 139.138 4.54364 139.159 4.55403L139.183 4.56582L139.186 4.56722L139.207 4.578L139.23 4.5903L139.253 4.60273L139.258 4.60514L139.277 4.61541L139.293 4.62479L139.3 4.62822L139.329 4.64495L139.345 4.65459L139.353 4.65916L139.397 4.68553L139.398 4.68643L139.413 4.69543L139.415 4.69708L139.435 4.70937L139.457 4.72358L139.466 4.72979L139.479 4.7379L139.5 4.75211L139.501 4.75249L139.522 4.7672L139.533 4.77481L139.544 4.78216L139.565 4.79725L139.566 4.79801L139.586 4.81247L139.59 4.81551L139.607 4.82807L139.628 4.84366L139.631 4.84581L139.648 4.85951L139.662 4.87042L139.669 4.87562L139.69 4.89184L139.694 4.8954L139.71 4.9082L139.725 4.92076L139.75 4.94169L139.756 4.94675L139.77 4.95868L139.786 4.97301L139.789 4.97579L139.809 4.99317L139.816 4.99989L139.828 5.0108L139.846 5.02702L139.848 5.02855L139.867 5.04643L139.875 5.05468L139.885 5.06456L139.904 5.08282C140.526 5.68769 140.833 6.54909 140.833 7.67311C140.833 8.69353 140.475 9.71979 139.766 10.7583L139.754 10.7752L139.742 10.7923L139.741 10.7941L139.73 10.8097L139.717 10.8271L139.714 10.8309L139.704 10.8448L139.69 10.8628L139.686 10.8685L139.677 10.8811L139.657 10.9073L139.648 10.9181L139.634 10.937L139.626 10.947L139.619 10.9562L139.604 10.9754L139.594 10.9877L139.573 11.0149L139.557 11.0348L139.54 11.0551L139.526 11.0722L139.524 11.0755L139.507 11.0963L139.491 11.1159L139.49 11.1172L139.472 11.1383L139.436 11.1812L139.418 11.2031L139.415 11.2065L139.38 11.2473L139.375 11.2531L139.361 11.2699L139.341 11.2926L139.321 11.3155L139.301 11.3387L139.291 11.3496L139.28 11.3621L139.259 11.3857L139.247 11.3994L139.238 11.4095L139.217 11.4336L139.202 11.4501L139.195 11.4579L139.173 11.4825L139.156 11.5019L139.108 11.5547L139.106 11.5575L139.082 11.5828L139.035 11.6343L139.011 11.6605L139.009 11.6631L138.987 11.6868L138.962 11.7133L138.957 11.7189L138.912 11.7672L138.886 11.7944L138.86 11.8219L138.85 11.8333L138.834 11.8495L138.808 11.8774L138.794 11.892L138.781 11.9056L138.754 11.934L138.737 11.9518L138.727 11.9625L138.699 11.9913L138.679 12.0126L138.671 12.0203L138.619 12.0742L138.614 12.0792L138.586 12.1088L138.558 12.137L138.556 12.1388L138.497 12.1994L138.496 12.2008L138.437 12.2608L138.432 12.2654L138.406 12.2918C137.681 13.0268 136.708 13.9495 135.485 15.0593C134.023 16.3871 132.803 17.5813 131.829 18.6426C131.748 19.1086 131.655 19.5556 131.549 19.9837C131.089 21.8499 130.392 23.3584 129.459 24.5083ZM152.305 0.0366429L146.509 8.33403C146.481 8.61111 146.44 8.88565 146.387 9.15804C146.272 9.75428 146.099 10.3367 145.869 10.9065V10.9086C145.644 11.4655 145.349 12.0387 144.985 12.6285C144.627 13.2094 144.205 13.7996 143.721 14.3991C143.399 14.8048 142.946 15.2951 142.364 15.8708C141.884 16.3454 141.31 16.8844 140.643 17.4881V21.1136H151.639V26.3919H156.648V21.1136H160V16.7149H156.648V0.0366429H152.305ZM151.639 7.75263V16.7149H145.476L151.639 7.75263ZM121.297 4.76514C121.774 4.37419 122.326 4.17866 122.941 4.17866C123.556 4.17866 124.102 4.37419 124.579 4.76514C125.056 5.15 125.452 5.92593 125.766 7.08052C126.079 8.23522 126.236 10.3551 126.236 13.4403C126.236 16.5316 126.055 18.7232 125.709 20.0139C125.44 21.0203 125.027 21.5608 124.55 21.9459C124.066 22.3366 123.514 22.5324 122.899 22.5324C122.284 22.5324 121.738 22.3431 121.261 21.9581C120.784 21.5733 120.43 20.9609 120.117 19.8061C119.803 18.6516 119.646 16.5316 119.646 13.4403C119.646 10.3551 119.822 8.15584 120.173 6.85454C120.437 5.84655 120.813 5.15 121.297 4.76514Z" fill="#0094F1"/>
    <path fill-rule="evenodd" clip-rule="evenodd" d="M10.3072 0.809921C9.91236 2.00343 9.38992 3.62517 8.8804 5.4971C9.12476 5.47973 9.3676 5.4791 9.60853 5.49444C9.65964 5.19454 9.71048 4.9006 9.76019 4.61313C10.0114 3.16156 10.2339 1.87485 10.3072 0.809921ZM16.1088 44.0349C15.2091 44.2751 14.3253 44.3854 13.4645 44.3859C13.63 44.2483 13.9404 43.9734 14.2814 43.586C15.046 43.5921 15.7932 43.5198 16.4729 43.4124C16.2027 43.7481 16.0173 43.9458 16.0152 43.9478L16.1088 44.0349ZM13.2613 44.3839C12.0766 44.3607 10.937 44.1295 9.86126 43.7383C10.0985 43.6475 10.573 43.4237 11.0487 42.9549C11.9608 43.3624 12.9614 43.5401 13.9459 43.5783C13.5266 44.0272 13.1874 44.2813 13.1849 44.2832L13.2613 44.3839ZM9.67156 43.667C8.96334 43.3954 8.2839 43.0547 7.63832 42.6594C7.94545 42.605 8.70719 42.4615 9.54348 42.2406C9.96879 42.4539 10.3898 42.6502 10.8012 42.8413C10.2074 43.3969 9.64151 43.5438 9.63821 43.5448L9.67156 43.667ZM7.47424 42.5575C6.57999 41.992 5.75346 41.3222 5.00923 40.587C5.47487 40.5098 5.98108 40.4069 6.51938 40.2819C7.39663 41.0403 8.30597 41.5979 9.20135 42.0656C8.25119 42.3019 7.45839 42.4313 7.45382 42.432L7.47424 42.5575ZM4.89726 40.4752C4.13806 39.7099 3.46763 38.877 2.90232 38.0191C3.38431 37.9592 3.86885 37.8875 4.35465 37.8055C4.96269 38.7213 5.61296 39.4604 6.28478 40.0737C5.78339 40.1871 5.31179 40.2801 4.87735 40.3497L4.89726 40.4752ZM2.82396 37.8991C2.68536 37.6846 2.55309 37.4687 2.42806 37.252C1.99514 36.5023 1.63057 35.7201 1.32192 34.914C1.7802 35.045 2.30975 35.0762 2.89699 35.0255C3.29935 35.9985 3.73773 36.8392 4.20273 37.5714C3.73634 37.6486 3.27133 37.7161 2.80848 37.7726L2.82396 37.8991ZM1.26156 34.7582C0.866177 33.695 0.573628 32.5886 0.369848 31.4523C0.787552 31.5777 1.26359 31.6229 1.78731 31.6016C2.08606 32.7925 2.4254 33.8455 2.79745 34.78C2.23366 34.8208 1.72986 34.7802 1.29998 34.64L1.26156 34.7582ZM0.343094 31.3046C0.137539 30.1109 0.0301352 28.8851 0.00616859 27.6415C0.359835 27.7562 0.7258 27.8265 1.10229 27.8579C1.1482 28.3626 1.21363 28.854 1.30011 29.3297C1.42984 30.0435 1.57199 30.7161 1.72542 31.3504C1.22517 31.3657 0.773608 31.3159 0.381012 31.1879L0.343094 31.3046ZM0.00286838 27.502C-0.0155187 26.2105 0.054987 24.9008 0.200181 23.5894C0.487781 23.6511 0.794021 23.6735 1.11687 23.6625C1.00338 25.0299 0.984358 26.3533 1.08073 27.5994C0.723008 27.5664 0.376191 27.4968 0.0421799 27.3843L0.00286838 27.502ZM0.217048 23.45C0.390394 21.9387 0.660745 20.4259 1.00465 18.9373L0.99349 19.0609C1.25763 19.0849 1.52595 19.0895 1.79796 19.0773C1.49514 20.54 1.2679 21.9951 1.13919 23.4062C0.821028 23.419 0.520881 23.3977 0.241524 23.3364L0.217048 23.45ZM1.03546 18.8085C1.25091 17.8882 1.49375 16.9772 1.75903 16.082L1.76194 16.0893C1.98931 16.0006 2.27754 15.8746 2.61523 15.724C2.32915 16.7497 2.07212 17.7856 1.85223 18.8187C1.57516 18.8339 1.30265 18.8317 1.03546 18.8085ZM1.85109 15.7775C2.32864 14.2023 2.87303 12.678 3.45292 11.2376L3.51455 11.3483C3.69969 11.2449 3.90816 11.1436 4.13591 11.0454C3.74787 12.0915 3.3795 13.1724 3.04105 14.2721C2.92566 14.6473 2.81368 15.0248 2.70551 15.4038C2.37759 15.5508 2.09025 15.6785 1.85109 15.7775ZM3.52786 11.0509C4.10877 9.62265 4.72379 8.28128 5.34134 7.05594L5.41615 7.15816C5.57301 7.04276 5.72924 6.93484 5.88509 6.83403C5.32612 8.03959 4.77603 9.34685 4.25827 10.7185C3.9916 10.8254 3.74622 10.9368 3.52786 11.0509ZM5.46649 6.80753C7.15278 3.50673 8.84173 1.10462 9.90247 0.265033C8.81409 1.34797 7.43125 3.57229 6.08303 6.41227C5.87811 6.53185 5.67268 6.66348 5.46649 6.80753ZM10.6037 0C11.0569 0.393991 11.4887 3.06785 12.1244 6.2549C11.8959 6.13 11.6651 6.01942 11.4321 5.92394C11.2546 3.7672 11.0654 1.72382 10.6037 0ZM12.1574 6.41924C12.3974 7.6158 12.6666 8.87957 12.9764 10.1185C12.6387 9.94589 12.2327 9.82111 11.779 9.7378C11.6525 8.62329 11.5614 7.50598 11.4722 6.41353L11.4557 6.21129C11.6704 6.30449 11.8832 6.41101 12.0942 6.53046L12.1574 6.41924ZM13.0181 10.286C13.2438 11.1762 13.4913 12.0506 13.764 12.8763C13.2729 12.7518 12.755 12.6884 12.2209 12.6739C12.0477 11.7963 11.9164 10.901 11.8098 10.0024C12.2508 10.0894 12.6401 10.2188 12.9551 10.3971L13.0181 10.286ZM13.8118 13.0205C14.1638 14.0666 14.5586 15.0281 15.0044 15.8353C14.3552 15.697 13.6996 15.6573 13.0411 15.6909C12.7186 14.8058 12.4701 13.8795 12.2729 12.9306C12.796 12.9486 13.3012 13.0162 13.7787 13.1446L13.8118 13.0205ZM15.0878 15.9832C15.5988 16.8734 16.1759 17.5606 16.833 17.94C17.2467 18.1787 17.6555 18.4443 18.0571 18.7339C16.9621 18.2884 15.735 18.2626 14.4398 18.4938C13.9084 17.7026 13.4816 16.8456 13.1352 15.9431C13.7827 15.916 14.4252 15.9629 15.059 16.1092L15.0878 15.9832ZM18.5978 19.1423C19.3894 19.7665 20.1458 20.4827 20.8451 21.2695C19.7185 20.8294 18.4669 20.8569 17.1384 21.1746C16.4829 20.5527 15.7895 19.9415 15.0587 19.3263C14.8981 19.1312 14.7454 18.931 14.6001 18.7259C16.0425 18.4854 17.3866 18.5816 18.5334 19.2522L18.5978 19.1423ZM21.039 21.4909C21.7268 22.2901 22.3552 23.1577 22.9019 24.0721C22.153 23.8615 21.1519 23.9699 19.9816 24.2879C19.1914 23.2618 18.3169 22.3103 17.3594 21.3858C18.6739 21.0947 19.9006 21.1074 20.9854 21.6068L21.039 21.4909ZM22.999 24.2371C23.4839 25.0679 23.9007 25.9361 24.2337 26.8254C23.5839 26.632 22.7315 26.7002 21.7344 26.9522C21.2515 26.0809 20.7221 25.2711 20.1462 24.5041C21.2961 24.2002 22.2629 24.1136 22.9572 24.357L22.999 24.2371ZM24.2903 26.9783C24.5457 27.6827 24.7476 28.3998 24.8885 29.1217L24.811 29.0214C24.368 29.3644 23.8154 29.7494 23.1693 30.1619C23.1677 30.1402 23.1654 30.1199 23.1621 30.1013L23.1582 30.078L23.1502 30.0563C22.7675 29.0199 22.3367 28.0676 21.8586 27.1795C22.8285 26.9401 23.6455 26.8869 24.2485 27.0984L24.2903 26.9783ZM24.9152 29.2635C25.0494 29.9921 25.1209 30.7249 25.1209 31.4543C25.1209 31.7446 25.1105 32.0374 25.0907 32.3316L25.0017 32.2409C24.6187 32.6173 23.9568 33.0705 23.0936 33.5685C23.0055 32.8292 22.8509 32.0766 22.6181 31.2961C22.7714 31.2027 22.8889 31.0707 22.9757 30.9255C23.0601 30.784 23.1147 30.6261 23.1442 30.4799C23.8423 30.0399 24.439 29.6288 24.9152 29.2635ZM25.0766 32.5213C24.9975 33.4939 24.8113 34.4806 24.5194 35.4488L24.4163 35.3745C23.9997 35.9542 23.5677 36.4485 23.1246 36.8717C23.1622 36.3671 23.1845 35.7852 23.1845 35.1141C23.1845 34.6926 23.1649 34.27 23.1234 33.8436C23.9813 33.3537 24.6556 32.9034 25.0766 32.5213ZM24.4015 35.823C24.0012 37.0306 23.435 38.2019 22.7056 39.2719C22.8499 38.8489 22.9994 38.2086 23.0921 37.252C23.5399 36.8481 23.9776 36.3766 24.4015 35.823ZM22.0429 40.1593C21.3647 40.9903 20.5759 41.7392 19.6783 42.3703C19.7922 42.099 20.0061 41.5562 20.2117 40.8548C21.0608 40.5699 21.7173 40.2997 22.0429 40.1593ZM19.0072 42.8073C18.1964 43.2952 17.3064 43.6906 16.3383 43.9706C16.454 43.8385 16.6351 43.6248 16.848 43.3486C17.7668 43.1811 18.5332 42.9602 19.0072 42.8073ZM8.80964 5.7587C8.47361 7.01194 8.14619 8.37107 7.86785 9.78472C8.14911 9.743 8.43138 9.70774 8.71188 9.67984C8.81345 9.66982 8.91477 9.6607 9.01584 9.65259C9.15799 8.27305 9.36126 6.96287 9.5658 5.74767C9.31561 5.73296 9.06351 5.73639 8.80964 5.7587ZM6.46104 6.20469C6.65772 6.10349 6.85377 6.01334 7.04905 5.93396C7.83805 4.0553 8.6344 2.45486 9.3359 1.30307C8.45699 2.44167 7.45407 4.14723 6.46104 6.20469ZM7.37533 5.8112C7.54817 5.75135 7.7205 5.69987 7.89207 5.65663C8.47145 3.98543 9.04652 2.53817 9.53143 1.46792C8.86937 2.55859 8.12134 4.05517 7.37533 5.8112ZM8.18385 5.59081C8.32613 5.56266 8.46777 5.54009 8.60904 5.52297C9.04107 3.92672 9.48413 2.50876 9.85264 1.37649C9.3676 2.42303 8.77972 3.88411 8.18385 5.59081ZM9.8643 5.51676C10.0412 5.53641 10.2171 5.56482 10.3918 5.60172C10.4595 4.24437 10.5119 2.947 10.4729 1.73954C10.3663 2.61071 10.197 3.58915 10.0124 4.65611C9.96385 4.93699 9.91426 5.22396 9.8643 5.51676ZM10.6448 5.66094C10.8199 5.70621 10.9939 5.75985 11.1669 5.82186C11.052 4.43383 10.9304 3.09525 10.7323 1.86598C10.7643 3.05797 10.7114 4.33123 10.6448 5.66094ZM11.1899 6.10286C11.0052 6.0326 10.819 5.97213 10.6316 5.92178L10.6134 6.27888C10.5579 7.35978 10.5009 8.4748 10.4792 9.60985C10.8412 9.62025 11.1893 9.64776 11.5165 9.69494C11.3939 8.60084 11.3045 7.50535 11.217 6.43345L11.1899 6.10286ZM10.3789 5.86027C10.1943 5.81995 10.0085 5.78952 9.82157 5.76923C9.61906 6.972 9.41743 8.26873 9.27566 9.63381C9.59737 9.61327 9.91464 9.60351 10.2233 9.60542C10.2452 8.46732 10.3025 7.34963 10.3581 6.26593L10.3789 5.86027ZM8.53752 5.78977C8.38763 5.8107 8.23724 5.83835 8.08621 5.87258C7.65164 7.13533 7.21568 8.52361 6.81497 9.97201C7.07365 9.91837 7.33627 9.86955 7.60053 9.82644C7.87659 8.41 8.20224 7.0477 8.53752 5.78977ZM7.79189 5.94765C7.60878 5.99952 7.42466 6.06127 7.23977 6.13305C6.71377 7.39415 6.19133 8.77977 5.7035 10.2389C5.97233 10.1651 6.25004 10.0959 6.53358 10.0325C6.92909 8.59362 7.36037 7.21104 7.79189 5.94765ZM6.9083 6.27227C6.69779 6.36738 6.48628 6.47555 6.27375 6.59716C5.69285 7.82846 5.11803 9.17604 4.57656 10.5967C4.83816 10.5009 5.11651 10.4094 5.40715 10.3235C5.88255 8.88984 6.39257 7.52361 6.9083 6.27227ZM7.81624 10.0508C7.59724 11.194 7.41172 12.3707 7.28111 13.5537C7.78618 13.3882 8.30241 13.2362 8.82207 13.1064C8.826 12.0108 8.89017 10.9422 8.98997 9.91102C8.90589 9.91799 8.82144 9.92573 8.73698 9.9341C8.43074 9.96453 8.1226 10.0038 7.81624 10.0508ZM11.5464 9.95629C11.2114 9.90481 10.8514 9.875 10.4749 9.86448C10.4613 10.8229 10.4748 11.7951 10.5375 12.7724C11.018 12.7081 11.494 12.6714 11.9588 12.6703C11.7846 11.7779 11.6531 10.8683 11.5464 9.95629ZM10.219 9.86029C9.90412 9.85852 9.57937 9.86942 9.24967 9.89149C9.15025 10.9092 9.08558 11.9636 9.07949 13.0443C9.48059 12.9502 9.88269 12.8703 10.2825 12.809C10.2185 11.8174 10.205 10.8319 10.219 9.86029ZM7.54906 10.0936C7.27604 10.1397 7.00517 10.1915 6.73901 10.2486C6.42376 11.4072 6.13223 12.6012 5.88306 13.7979C5.86391 13.8898 5.84502 13.9818 5.82638 14.0737C6.21174 13.9254 6.60979 13.7798 7.01621 13.6419C7.14479 12.4437 7.32968 11.2519 7.54906 10.0936ZM6.45762 10.3112C6.16584 10.3787 5.88103 10.4522 5.60687 10.5307C5.16977 11.8597 4.76258 13.2458 4.40841 14.6512C4.7688 14.4973 5.14871 14.3398 5.54359 14.1839C5.57263 14.038 5.60243 13.8919 5.63286 13.7458C5.87367 12.5892 6.15417 11.4345 6.45762 10.3112ZM5.31001 10.6189C5.00847 10.7119 4.72214 10.8108 4.4566 10.9142C4.0408 12.0234 3.64617 13.1743 3.28528 14.3471C3.19144 14.6523 3.09976 14.9591 3.01061 15.2669C3.34627 15.1162 3.71605 14.9507 4.11321 14.7784C4.46497 13.362 4.87164 11.9626 5.31001 10.6189ZM7.25131 13.8323C7.13084 15.0011 7.06528 16.174 7.0753 17.3255C7.72126 17.0751 8.37457 16.8227 9.03181 16.5933C8.89068 15.5007 8.82804 14.423 8.82246 13.3692C8.29253 13.5033 7.76589 13.6611 7.25131 13.8323ZM12.0099 12.9259C11.5355 12.9241 11.0481 12.9607 10.555 13.0273C10.6276 14.0207 10.7528 15.0188 10.9542 16.013C11.5612 15.8653 12.169 15.7572 12.7745 15.7085C12.4535 14.8144 12.2061 13.8809 12.0099 12.9259ZM10.3 13.064C9.89474 13.1268 9.48655 13.2093 9.07924 13.3063C9.08279 14.3528 9.14252 15.4231 9.2801 16.5078C9.75335 16.3473 10.2284 16.2003 10.7039 16.0761C10.5002 15.0727 10.3734 14.0659 10.3 13.064ZM6.9873 13.9215C6.56985 14.0651 6.16153 14.2166 5.76716 14.3706C5.52432 15.6063 5.33005 16.8382 5.20477 18.0301C5.7366 17.8422 6.2768 17.6347 6.82283 17.4233C6.80863 16.2689 6.87038 15.0933 6.9873 13.9215ZM5.48514 14.4819C5.08214 14.643 4.69563 14.8052 4.33093 14.9625C4.03915 16.1489 3.78655 17.3465 3.58657 18.5323C4.02951 18.4192 4.48082 18.2792 4.93872 18.1226C5.05894 16.9369 5.24762 15.7117 5.48514 14.4819ZM4.03661 15.0903C3.66672 15.2521 3.32231 15.4069 3.01024 15.547L2.91868 15.5881C2.61764 16.6516 2.34766 17.7268 2.11738 18.799C2.50884 18.7622 2.90905 18.6926 3.3166 18.5981C3.50986 17.4331 3.75421 16.2567 4.03661 15.0903ZM7.07936 17.5977C7.10295 18.8241 7.2139 20.0237 7.43835 21.1643L7.52572 21.1229C8.26285 20.7726 9.01241 20.4165 9.76387 20.0812C9.44203 18.9971 9.21644 17.9178 9.06668 16.8518C8.4083 17.0827 7.75334 17.3365 7.10599 17.5874L7.07936 17.5977ZM12.8665 15.9585C12.2493 16.0032 11.6282 16.1123 11.0067 16.2638C11.2199 17.2521 11.51 18.2358 11.9003 19.2062C12.6686 18.927 13.4281 18.697 14.167 18.546C13.6368 17.7405 13.2115 16.8712 12.8665 15.9585ZM10.7564 16.3271C10.2753 16.4529 9.79405 16.6025 9.31447 16.7661C9.4608 17.8262 9.68272 18.8992 10.0002 19.9766C10.5541 19.7331 11.1083 19.5025 11.6586 19.2957C11.2646 18.3159 10.9717 17.3235 10.7564 16.3271ZM6.82726 17.6953C6.27033 17.9108 5.71935 18.1213 5.17636 18.3107C5.0422 19.7012 5.0053 21.0324 5.0985 22.2448C5.77832 21.9491 6.48286 21.6179 7.20122 21.277C6.97157 20.1307 6.85529 18.9264 6.82726 17.6953ZM4.91159 18.4015C4.4481 18.5578 3.99097 18.6964 3.54118 18.8071C3.30874 20.2424 3.15543 21.6578 3.10572 23.0125C3.66126 22.8357 4.24572 22.6091 4.85135 22.3513C4.75117 21.1333 4.78224 19.7972 4.91159 18.4015ZM3.27235 18.8702C2.862 18.9614 2.45824 19.0273 2.0621 19.0603C1.75674 20.5233 1.52735 21.9784 1.39673 23.3886C1.84931 23.3465 2.33511 23.2424 2.84767 23.0915C2.89319 21.7315 3.04282 20.3109 3.27235 18.8702ZM7.49123 21.4223C7.75994 22.6808 8.16978 23.8641 8.75677 24.9284L8.8203 25.0436C9.26958 24.8026 9.7205 24.5561 10.1718 24.3096C10.5261 24.116 10.8807 23.9223 11.2346 23.7311C10.6476 22.5986 10.1903 21.461 9.83894 20.3277C9.09927 20.6582 8.36087 21.0091 7.63478 21.3541L7.49123 21.4223ZM14.3223 18.776C13.5676 18.9226 12.7882 19.1559 11.9977 19.4429C12.4308 20.4736 12.9791 21.4885 13.6707 22.4774C14.5351 22.0649 15.386 21.7051 16.2125 21.437C15.7445 20.7968 15.2862 20.1625 14.8696 19.4989C14.6763 19.2647 14.494 19.0235 14.3223 18.776ZM11.756 19.5324C11.1987 19.7416 10.6367 19.9757 10.0748 20.2232C10.4225 21.3515 10.876 22.4837 11.4593 23.61C12.1226 23.2536 12.7835 22.9079 13.4372 22.59C12.7426 21.5925 12.1916 20.5699 11.756 19.5324ZM7.25423 21.5348C6.52585 21.8804 5.81154 22.2153 5.12145 22.5135C5.1879 23.2178 5.30063 23.8794 5.46624 24.4859C5.64986 25.1582 5.85985 25.7987 6.08976 26.4108C6.9102 26.0423 7.74878 25.6146 8.59471 25.164L8.53257 25.0516C7.94253 23.9817 7.52763 22.7953 7.25423 21.5348ZM4.8757 22.6185C4.25979 22.8789 3.66443 23.1065 3.09722 23.2825C3.05855 24.7411 3.14325 26.1254 3.38279 27.3831C4.17851 27.1883 5.00694 26.8851 5.85579 26.5143C5.62145 25.8913 5.40728 25.2387 5.22011 24.553C5.05703 23.956 4.94443 23.3073 4.8757 22.6185ZM2.84006 23.3595C2.32446 23.5071 1.83372 23.6079 1.37391 23.6469C1.2575 25.0275 1.23823 26.3625 1.33777 27.6166C1.91132 27.6412 2.51188 27.5759 3.13349 27.4407C2.89382 26.1864 2.8062 24.8091 2.84006 23.3595ZM8.94355 25.267L9.26273 25.8455C9.73204 26.6959 10.1832 27.5134 10.6139 28.2982C11.1703 28.037 11.7288 27.7715 12.2849 27.5071C12.5748 27.3692 12.8642 27.2316 13.1523 27.0952L12.819 26.5189C12.5549 26.0621 12.279 25.5848 11.6917 24.5677C11.5743 24.3644 11.4617 24.1609 11.3531 23.9572C11.0005 24.1477 10.6471 24.3408 10.2939 24.5338C9.84313 24.7801 9.39258 25.0262 8.94355 25.267ZM16.3716 21.6543C15.545 21.9166 14.6907 22.2753 13.8208 22.6889C14.1245 23.1093 14.4544 23.5247 14.8131 23.9343C15.3317 24.5263 15.8052 25.1077 16.2376 25.6774C17.0056 25.3422 17.7472 25.038 18.449 24.782C18.4132 24.7177 18.3773 24.6535 18.341 24.5897C17.7352 23.521 17.0471 22.5773 16.3716 21.6543ZM13.5864 22.8014C12.9234 23.123 12.2521 23.4738 11.5777 23.8361C11.6851 24.0379 11.7967 24.2394 11.9129 24.4406C12.1196 24.7987 12.5945 25.6199 13.0402 26.3907L13.3841 26.9854C14.2739 26.5648 15.1507 26.1565 15.9971 25.7829C15.5782 25.2335 15.1207 24.673 14.621 24.1024C14.246 23.6744 13.902 23.2405 13.5864 22.8014ZM8.71796 25.3876C7.86227 25.8435 7.01329 26.2764 6.18105 26.6495C6.60383 27.7375 7.08798 28.7343 7.59534 29.6589C8.5029 29.274 9.43861 28.8478 10.3818 28.4069C9.9537 27.6268 9.50506 26.8139 9.03854 25.9686L8.71796 25.3876ZM5.9471 26.753C5.0862 27.1284 4.24445 27.4355 3.43289 27.6335C3.48069 27.8615 3.5337 28.0851 3.59241 28.3039C3.84121 29.2324 4.09013 30.0827 4.34057 30.8635C5.28225 30.5843 6.29949 30.2016 7.35821 29.7588C6.85263 28.8356 6.36987 27.8399 5.9471 26.753ZM3.18358 27.6912C2.55487 27.8278 1.94531 27.8951 1.36009 27.8735C1.40511 28.3572 1.46838 28.8283 1.55131 29.2847C1.68332 30.011 1.82827 30.694 1.98513 31.337C2.62284 31.2911 3.33232 31.1489 4.09482 30.9346C3.84361 30.1514 3.59419 29.2994 3.34514 28.37C3.28579 28.1483 3.23202 27.922 3.18358 27.6912ZM10.737 28.5227C11.2521 29.4624 11.7369 30.3541 12.1869 31.1974C12.591 30.9948 12.9957 30.7908 13.3991 30.5874C13.8577 30.3561 14.3147 30.1255 14.7681 29.8988C14.3222 29.1206 13.8281 28.2642 13.2806 27.3172C12.9862 27.4567 12.6905 27.5974 12.394 27.7382C11.8426 28.0005 11.289 28.2636 10.737 28.5227ZM18.5725 25.0065C17.8836 25.2574 17.1533 25.5564 16.3951 25.8867C17.024 26.7302 17.5628 27.5473 18.0241 28.3337C18.6437 28.0547 19.243 27.8004 19.8149 27.58C19.4191 26.6563 19.0086 25.8078 18.5725 25.0065ZM16.1551 25.992C15.3009 26.3683 14.4136 26.7816 13.5124 27.2076C14.0585 28.1521 14.5517 29.0069 14.9971 29.7844C15.954 29.3072 16.892 28.8496 17.7903 28.4397C17.3278 27.6534 16.7871 26.8361 16.1551 25.992ZM10.5051 28.6315C9.56326 29.0717 8.62818 29.4977 7.71961 29.8831C8.26196 30.852 8.82677 31.7412 9.36824 32.5726C10.2176 32.175 11.0863 31.7478 11.9584 31.3118C11.5076 30.4674 11.0215 29.5738 10.5051 28.6315ZM7.48223 29.9831C6.4102 30.4316 5.37786 30.82 4.41856 31.1043C4.7986 32.2658 5.18245 33.2696 5.57466 34.1456C6.68055 33.7715 7.88434 33.2611 9.1339 32.6818C8.59103 31.8477 8.02547 30.9557 7.48223 29.9831ZM4.17281 31.1752C3.40879 31.39 2.69448 31.5343 2.04688 31.5857C2.34766 32.776 2.68979 33.8256 3.06476 34.7551C3.74775 34.6779 4.51062 34.4921 5.33094 34.2265C4.93771 33.3457 4.5531 32.3383 4.17281 31.1752ZM12.3071 31.423C12.9507 32.6335 13.5203 33.7422 14.0024 34.7477L14.0765 34.7184C15.0185 34.3436 15.9318 33.9529 16.806 33.5558C16.3061 32.6109 15.6779 31.4897 14.8951 30.121C14.438 30.3496 13.9769 30.5822 13.5141 30.8156C13.1125 31.0181 12.7096 31.2213 12.3071 31.423ZM19.9137 27.8125C19.3524 28.0294 18.7629 28.28 18.1524 28.5549C18.8774 29.8211 19.402 31.0061 19.7803 32.0929L19.7842 32.1045C20.3574 31.8051 20.9012 31.5082 21.4115 31.2181C21.2049 31.0805 21.054 30.8931 21.0104 30.73L21.0051 30.7086C20.6474 29.6577 20.2867 28.7003 19.9137 27.8125ZM17.9189 28.6609C17.0221 29.0701 16.0829 29.5284 15.1241 30.0066C15.9073 31.3762 16.5368 32.5002 17.0387 33.4496C17.923 33.0435 18.7654 32.6315 19.5552 32.2235L19.5391 32.177C19.1633 31.0977 18.6414 29.9201 17.9189 28.6609ZM12.0786 31.5374C11.2143 31.9696 10.3528 32.3932 9.50912 32.7885C9.5904 32.9129 9.67118 33.0361 9.75107 33.1581C10.3483 34.0692 10.902 34.9143 11.3477 35.727C12.1684 35.447 12.9762 35.1499 13.765 34.8412C13.2857 33.8435 12.7191 32.7417 12.0786 31.5374ZM9.27465 32.8978C8.01646 33.4813 6.80139 33.9967 5.67966 34.3766C6.15328 35.403 6.63971 36.2482 7.14694 36.9634C8.47982 36.6366 9.80572 36.2454 11.1011 35.8103C10.6637 35.0176 10.1215 34.1902 9.53689 33.2982C9.4504 33.1662 9.3629 33.0327 9.27465 32.8978ZM5.43581 34.4576C4.61904 34.7228 3.85528 34.9116 3.16418 34.9971C3.57009 35.9658 4.01252 36.7998 4.48146 37.524C5.27958 37.3854 6.08075 37.2185 6.88002 37.0279C6.3809 36.3122 5.90195 35.4713 5.43581 34.4576ZM14.1125 34.9786C14.5038 35.8051 14.8335 36.5599 15.0933 37.2417C15.4308 37.1102 15.7667 36.9772 16.0997 36.8428C16.7447 36.5827 17.3794 36.318 17.9953 36.0526C17.743 35.4144 17.3944 34.6799 16.9249 33.782C16.0427 34.183 15.1212 34.5775 14.1706 34.9556L14.1125 34.9786ZM21.6831 31.3567C21.1181 31.6806 20.5107 32.013 19.8671 32.3488C20.1772 33.2826 20.3793 34.1408 20.5094 34.9125C21.3791 34.4957 22.1708 34.089 22.8514 33.7063C22.7686 32.9557 22.6162 32.1916 22.3816 31.398L22.3737 31.4002C22.343 31.4084 22.3121 31.4151 22.281 31.4205C22.0721 31.4561 21.8657 31.425 21.6831 31.3567ZM19.6376 32.4679C18.858 32.87 18.0279 33.2757 17.1575 33.6757C17.6258 34.5719 17.9753 35.3085 18.2303 35.9508C18.9409 35.6418 19.6249 35.3321 20.2691 35.027C20.1433 34.2587 19.9451 33.4018 19.6376 32.4679ZM13.8752 35.0722C13.0903 35.3797 12.2867 35.6756 11.4702 35.9548C11.8852 36.7432 12.1912 37.5037 12.3277 38.2677C13.1674 37.9721 14.0162 37.6583 14.8568 37.3335C14.598 36.6547 14.2681 35.9005 13.8752 35.0722ZM11.2244 36.0383C9.94191 36.4702 8.6292 36.8598 7.30913 37.1868C7.93784 38.0323 8.60105 38.6912 9.3132 39.2593C10.2058 38.9885 11.1372 38.6831 12.0824 38.3537C11.9528 37.5942 11.6452 36.8325 11.2244 36.0383ZM7.0403 37.2525C6.23926 37.4456 5.43606 37.6153 4.63566 37.7569C5.25321 38.6685 5.91362 39.3987 6.59483 40.0019C7.34807 39.8236 8.1628 39.6027 9.01635 39.3486C8.33412 38.7882 7.69501 38.1381 7.08545 37.314C7.07036 37.2937 7.05527 37.273 7.0403 37.2525ZM15.183 37.481C15.5081 38.3693 15.7073 39.1276 15.7615 39.7541C15.9585 39.7214 16.1576 39.6896 16.3582 39.6576C17.0705 39.5439 17.803 39.4268 18.54 39.2525C18.5605 39.0894 18.5715 38.9267 18.5715 38.765C18.5715 37.9847 18.4405 37.2431 18.0869 36.2911C17.4717 36.5564 16.8383 36.8204 16.1948 37.08C15.8599 37.2151 15.5222 37.3489 15.183 37.481ZM22.8788 33.9816C22.1965 34.3619 21.4102 34.7639 20.5514 35.1745C20.6947 36.1178 20.7309 36.9228 20.7309 37.5677C20.7309 37.8931 20.7123 38.2171 20.6798 38.5347C21.4189 38.1948 22.1478 37.7427 22.851 37.1226C22.8987 36.569 22.9283 35.9067 22.9283 35.1141C22.9283 34.7383 22.9123 34.3614 22.8788 33.9816ZM20.3098 35.2892C19.6798 35.587 19.0133 35.8885 18.3222 36.1892C18.6918 37.1783 18.8278 37.9483 18.8278 38.765C18.8278 38.9052 18.82 39.046 18.8051 39.1872C19.3402 39.0501 19.877 38.8792 20.4095 38.6541C20.4506 38.2988 20.4748 37.9342 20.4748 37.5677C20.4748 36.9504 20.4409 36.1843 20.3098 35.2892ZM14.9462 37.5728C14.0891 37.904 13.2233 38.2238 12.367 38.5246C12.393 38.7274 12.4065 38.9305 12.4065 39.1348C12.4065 39.7948 12.3313 40.3639 12.2062 40.8543C13.1865 40.265 14.3102 40.0037 15.508 39.797C15.4596 39.1892 15.2659 38.4469 14.9462 37.5728ZM12.1194 38.6112C11.2479 38.9143 10.3881 39.1969 9.55959 39.4511C10.2748 39.9933 11.0394 40.4573 11.8677 40.9355C11.8824 40.944 11.8975 40.9516 11.9124 40.9599C12.0593 40.4527 12.1503 39.8503 12.1503 39.1348C12.1503 38.9599 12.1397 38.7856 12.1194 38.6112ZM9.25854 39.5425C8.40665 39.7989 7.5909 40.0236 6.83323 40.2073C7.73242 40.9608 8.66281 41.5072 9.57404 41.9692C10.3521 41.7601 11.1782 41.4852 11.7372 41.1552C10.8444 40.6398 10.0242 40.14 9.25854 39.5425ZM15.7756 40.0107C15.7761 40.0365 15.7768 40.0624 15.7768 40.0878C15.7768 40.6282 15.6693 41.1353 15.4999 41.5994C16.3028 41.5524 17.1165 41.4201 17.8866 41.2475C18.159 40.7028 18.3853 40.1155 18.4967 39.5256C17.7876 39.6879 17.0838 39.8003 16.3982 39.9099C16.1888 39.9432 15.9811 39.9764 15.7756 40.0107ZM22.8148 37.4928C22.1092 38.0808 21.3812 38.5101 20.645 38.8339C20.5644 39.4526 20.4356 40.0402 20.2954 40.5582C21.317 40.2065 22.025 39.8899 22.1442 39.8358C22.214 39.7681 22.6147 39.3068 22.8148 37.4928ZM20.3711 38.9494C19.8381 39.165 19.3018 39.3289 18.7677 39.4611C18.6702 40.0458 18.4621 40.6282 18.2047 41.1734C18.8533 41.0166 19.4645 40.8349 20.0033 40.6567C20.1467 40.1505 20.2824 39.5677 20.3711 38.9494ZM15.52 40.0542C14.3221 40.2623 13.2039 40.5279 12.2479 41.1286C13.1225 41.5221 14.1571 41.648 15.2228 41.6124C15.4038 41.147 15.5206 40.6351 15.5206 40.0878C15.5206 40.0767 15.52 40.0653 15.52 40.0542ZM11.7445 41.4441C11.24 41.7172 10.5716 41.9506 9.91439 42.1386C10.2667 42.311 10.615 42.4729 10.9566 42.6315L10.9923 42.6481C11.2669 42.349 11.5354 41.9564 11.7445 41.4441ZM11.2348 42.7579C12.1588 43.154 13.1746 43.3118 14.167 43.3306C14.5 42.9407 14.8537 42.4444 15.116 41.8664C14.0219 41.8919 12.9603 41.7481 12.0633 41.3253C11.8455 41.9378 11.5467 42.4044 11.2348 42.7579ZM14.4956 43.3319C15.2733 43.3234 16.0287 43.2353 16.7049 43.1159C17.0223 42.6991 17.4015 42.1523 17.735 41.5382C16.9778 41.6986 16.1829 41.8177 15.3986 41.856C15.1542 42.4281 14.8218 42.9268 14.4956 43.3319ZM17.0748 43.046C18.28 42.8045 19.1727 42.4857 19.3849 42.4068C19.4549 42.2482 19.6854 41.7079 19.9165 40.9518C19.3562 41.1323 18.726 41.3131 18.0602 41.4662C17.7513 42.0656 17.3935 42.6091 17.0748 43.046Z" fill="url(#paint0_radial_669_174)"/>
    <defs>
        <radialGradient id="paint0_radial_669_174" cx="0" cy="0" r="1" gradientUnits="userSpaceOnUse" gradientTransform="translate(18.9341 41.1097) rotate(-114.228) scale(39.9339 20.4381)">
            <stop stop-color="#0EE5CD"/>
            <stop offset="1" stop-color="#0094F1"/>
        </radialGradient>
    </defs>
</svg>
