<svg width="158" height="37" viewBox="0 0 158 37" fill="none" xmlns="http://www.w3.org/2000/svg">
    <path d="M91.5128 30.4329C92.7489 30.1926 93.7446 29.8091 94.5 29.2827L93.5042 25.231C92.9091 25.5514 92.2281 25.8147 91.4613 26.0207C90.6944 26.2267 89.7502 26.3298 88.6286 26.3298C87.4153 26.3298 86.3508 26.1352 85.4352 25.746C84.5196 25.3568 83.7642 24.8075 83.1691 24.0979C82.5739 23.3883 82.1276 22.5413 81.8299 21.557C81.5323 20.5727 81.3836 19.4854 81.3836 18.295C81.3836 16.9445 81.5496 15.7656 81.8814 14.7585C82.2134 13.7513 82.6769 12.9157 83.2721 12.2519C83.8672 11.5881 84.5826 11.0902 85.4181 10.7583C86.2536 10.4264 87.1864 10.2604 88.2165 10.2604C89.3839 10.2604 90.351 10.3176 91.1179 10.4321C91.8847 10.5465 92.5543 10.7296 93.1265 10.9815L94.1223 6.7238C93.4585 6.47202 92.6172 6.25451 91.5986 6.0714C90.58 5.88822 89.3267 5.7967 87.8388 5.7967C86.4883 5.7967 85.1148 6.01414 83.7185 6.4491C82.3221 6.88406 81.0517 7.58789 79.9072 8.56075C78.7626 9.5336 77.824 10.8155 77.0915 12.4064C76.4842 13.7256 76.1286 15.3004 76.0249 17.131H78.9108V27.2591C79.1135 27.4876 79.3254 27.7043 79.5466 27.9092C80.6339 28.9164 81.8814 29.6489 83.2893 30.1068C84.6971 30.5645 86.1678 30.7935 87.7014 30.7935C89.0062 30.7935 90.2767 30.6733 91.5128 30.4329Z" fill="#23376C"/>
    <path fill-rule="evenodd" clip-rule="evenodd" d="M46.5595 5.95505C45.291 6.05884 44.1357 6.20229 43.0938 6.38546C43.0938 8.90181 43.0938 13.4531 43.0938 18.1035C43.0938 22.9608 43.0938 27.9261 43.0938 30.7935H48.2494V22.4847C48.3903 22.5081 48.6015 22.5316 48.8831 22.5551C49.1648 22.5785 49.464 22.5961 49.7809 22.6078C50.0978 22.6196 50.397 22.6254 50.6787 22.6254H51.2772C52.5916 22.6254 53.8708 22.4671 55.1148 22.1502C56.3588 21.8333 57.4678 21.3345 58.4417 20.6539C59.4159 19.9732 60.1963 19.0872 60.783 17.9958C61.3698 16.9044 61.6632 15.5841 61.6632 14.035C61.6632 12.2747 61.3229 10.8605 60.6422 9.79254C59.9615 8.72462 59.0873 7.89139 58.0193 7.29291C56.9514 6.69443 55.7485 6.29536 54.4107 6.09587C53.0728 5.89638 51.7466 5.79663 50.4323 5.79663C49.1414 5.79663 47.8504 5.84941 46.5595 5.95505ZM49.3585 10.4087C49.8161 10.3852 50.2914 10.3735 50.7843 10.3735C51.4415 10.3735 52.0928 10.4204 52.7383 10.5143C53.3837 10.6082 53.9588 10.7843 54.4634 11.0424C54.9681 11.3006 55.3729 11.6585 55.6781 12.1162C55.9832 12.5739 56.1358 13.1783 56.1358 13.9294C56.1358 14.8213 55.9714 15.5313 55.6429 16.0594C55.3143 16.5875 54.8859 17.0041 54.3578 17.3093C53.8297 17.6144 53.2253 17.8139 52.5446 17.9077C51.864 18.0017 51.1833 18.0486 50.5026 18.0486C50.3853 18.0486 50.2269 18.0427 50.0274 18.031C49.8279 18.0193 49.6107 18.0075 49.376 17.9958C49.1414 17.9841 48.9184 17.9664 48.7071 17.9429C48.4958 17.9195 48.3433 17.896 48.2494 17.8725V10.5495C48.5311 10.4791 48.9007 10.4322 49.3585 10.4087Z" fill="#23376C"/>
    <path d="M78.3648 17.677H68.5446V20.7673L74.2445 21.3167V25.4713C73.8095 25.7689 73.2774 25.9863 72.6478 26.1237C72.0183 26.2611 71.3946 26.3298 70.7765 26.3298C69.8609 26.3298 68.991 26.1809 68.1669 25.8834C67.3429 25.5858 66.6161 25.1108 65.9866 24.4584C65.3571 23.806 64.8593 22.9763 64.493 21.9691C64.1268 20.9619 63.9436 19.7486 63.9436 18.3294C63.9436 16.8644 64.1268 15.6168 64.493 14.5867C64.8593 13.5566 65.3743 12.7212 66.0381 12.0802C66.7019 11.4392 67.4802 10.9757 68.373 10.6896C69.2657 10.4034 70.25 10.2603 71.3259 10.2603C72.4933 10.2603 73.4662 10.329 74.2445 10.4664C75.0227 10.6038 75.7209 10.7754 76.339 10.9814L77.4034 6.75807C76.7625 6.55204 75.8755 6.34035 74.7424 6.1229C73.6093 5.90539 72.2987 5.79663 70.8109 5.79663C69.3687 5.79663 67.9209 6.01982 66.4673 6.4662C65.0138 6.91258 63.6975 7.63365 62.5186 8.62942C62.0844 8.99613 61.6805 9.40334 61.307 9.85079C61.5781 10.3508 61.7881 10.91 61.9369 11.5283C62.1184 12.2826 62.2092 13.1182 62.2092 14.035C62.2092 14.8429 62.1309 15.5994 61.9742 16.3043C61.816 17.0162 61.5789 17.6661 61.2629 18.2539C60.9489 18.8379 60.5836 19.3665 60.1672 19.8393C59.7513 20.3113 59.2799 20.7315 58.7532 21.0996L58.7451 21.1053C58.8958 22.1324 59.1349 23.0727 59.4627 23.9262C60.0693 25.5057 60.9048 26.8047 61.9693 27.8233C63.0337 28.842 64.2812 29.5917 65.7119 30.0724C67.1426 30.5531 68.682 30.7935 70.3302 30.7935C71.0397 30.7935 71.7608 30.7477 72.4933 30.6561C73.2259 30.5645 73.9411 30.4215 74.6394 30.2269C75.3375 30.0323 76.0013 29.792 76.6308 29.5058C77.2603 29.2197 77.8384 28.8706 78.3648 28.4586V17.677Z" fill="#23376C"/>
    <path d="M117.906 26.3504V30.7387H100.83C101.014 29.0686 101.57 27.4906 102.493 25.9991C103.416 24.5076 105.244 22.5266 107.966 20.056C110.161 18.0634 111.504 16.7101 112.001 16.0018C112.67 15.0228 113.007 14.0553 113.007 13.0935C113.007 12.0339 112.717 11.2219 112.131 10.6518C111.551 10.0817 110.747 9.79943 109.723 9.79943C108.705 9.79943 107.901 10.0989 107.297 10.6979C106.7 11.291 106.356 12.2815 106.262 13.6694L101.398 13.1972C101.688 10.5827 102.593 8.70527 104.12 7.56499C105.646 6.43052 107.552 5.86042 109.841 5.86042C112.35 5.86042 114.32 6.52268 115.758 7.84146L115.816 7.89537L115.835 7.91346L115.89 7.96589L115.89 7.96603L115.892 7.96788L115.955 8.02903L115.957 8.03166L116.018 8.09253L116.022 8.09629L116.076 8.15191L116.081 8.15645L116.083 8.15942L116.13 8.20796L116.142 8.22086L116.147 8.22668L116.2 8.28315L116.202 8.28578L116.203 8.2862L116.254 8.34296L116.269 8.3597L116.302 8.39716L116.319 8.41624L116.32 8.41696L116.336 8.43547L116.367 8.47137L116.385 8.49322L116.401 8.51259L116.418 8.53196L116.42 8.53472L116.449 8.5692L116.45 8.57083L116.466 8.59034L116.482 8.60985L116.498 8.62943L116.513 8.64901L116.529 8.66866L116.559 8.70648L116.56 8.70811L116.575 8.7279L116.591 8.74769L116.604 8.76536L116.606 8.76756L116.621 8.78749L116.636 8.8075L116.666 8.84737L116.68 8.86745L116.71 8.90767L116.724 8.92782L116.753 8.96826L116.767 8.98855L116.809 9.0497L116.823 9.07013C117.545 10.1393 117.906 11.371 117.906 12.7652C117.906 13.8825 117.699 14.9421 117.291 15.9557C116.882 16.9635 116.231 18.0174 115.338 19.123C115.196 19.3014 115.026 19.4984 114.828 19.714L114.808 19.7354L114.769 19.7776L114.769 19.7778L114.729 19.8203L114.708 19.8427L114.677 19.8756L114.647 19.9071L114.614 19.9421L114.605 19.9511L114.582 19.9758L114.519 20.0407L114.516 20.0439L114.483 20.0784L114.449 20.1131L114.385 20.1787L114.38 20.1833L114.345 20.2189L114.339 20.2256L114.31 20.2547L114.292 20.2729L114.274 20.2908L114.245 20.3208L114.202 20.3638L114.196 20.369L114.165 20.4006L114.147 20.4178L114.098 20.4671L114.089 20.4752L114.051 20.5129L114.047 20.5167L114.013 20.5508L113.996 20.5669L113.974 20.5891L113.895 20.6663L113.839 20.7202L113.773 20.7842L113.731 20.8241L113.731 20.8248L113.69 20.8642L113.62 20.9312L113.563 20.9852L113.562 20.9861L113.506 21.0396L113.431 21.1105L113.389 21.1497L113.386 21.1525L113.341 21.1948L113.33 21.2055L113.296 21.2374L113.27 21.2618L113.209 21.3185L113.204 21.3232L113.157 21.3665L113.147 21.3758L113.022 21.4916L112.967 21.5427L112.959 21.5502L112.87 21.6324L112.83 21.6688L112.82 21.6776L112.771 21.7231L112.764 21.7289L112.72 21.7689L112.67 21.815L112.568 21.9079L112.563 21.9118L112.464 22.0019L112.358 22.097L112.356 22.099L112.286 22.1623L112.252 22.1932L112.198 22.2417L112.143 22.2904C110.599 23.6668 109.622 24.5767 109.214 25.0316C108.8 25.4808 108.469 25.9243 108.214 26.3504H117.906Z" fill="#23376C"/>
    <path fill-rule="evenodd" clip-rule="evenodd" d="M127.951 29.0916C128.256 28.851 128.551 28.5271 128.82 28.1962C129.72 27.0875 130.376 26.0431 130.79 24.1605L130.818 24.0285L130.823 24.0076C130.843 23.9102 130.863 23.8116 130.882 23.7121L130.897 23.6344L130.912 23.5569L130.912 23.5563L130.926 23.4778L130.927 23.4725L130.94 23.3989L130.956 23.3089L130.976 23.19L130.985 23.1374L131.005 23.0129L131.007 22.9983L131.019 22.9169L131.032 22.8351L131.044 22.7529L131.054 22.6787L131.056 22.6703L131.067 22.5873L131.078 22.5042L131.078 22.5038L131.089 22.4201L131.091 22.4091L131.104 22.3044L131.115 22.2148L131.121 22.1662L131.131 22.0807L131.134 22.0464L131.146 21.9459L131.158 21.8261L131.164 21.7738L131.177 21.637L131.183 21.5746L131.185 21.5593L131.193 21.471L131.194 21.4594L131.201 21.3839L131.214 21.2266L131.216 21.2036L131.227 21.0605L131.232 20.9973L131.243 20.8331L131.244 20.8164L131.255 20.6566L131.258 20.6043L131.267 20.4508L131.269 20.4094L131.277 20.2539L131.278 20.2281L131.28 20.1914L131.287 20.0226L131.288 20.0021L131.295 19.8177L131.295 19.8151L131.295 19.8111L131.302 19.6057L131.303 19.583L131.307 19.4242L131.308 19.3945L131.308 19.3793C131.311 19.2517 131.313 19.1229 131.314 18.9932L131.315 18.9498C131.317 18.811 131.317 18.6711 131.317 18.5299C131.317 18.5006 131.317 18.4714 131.317 18.4423C131.317 18.3998 131.317 18.3575 131.317 18.3153L131.317 18.3057L131.315 18.0932L131.315 18.085L131.315 18.0723L131.312 17.9094L131.312 17.8778L131.308 17.6646V17.6643L131.307 17.6483L131.303 17.4759L131.302 17.4529L131.302 17.4428L131.296 17.251L131.295 17.2433L131.295 17.2197L131.288 17.0357L131.287 17.0198L131.278 16.83L131.277 16.7992L131.269 16.6332L131.268 16.6264L131.268 16.6159L131.257 16.4375L131.257 16.4246L131.254 16.3867L131.244 16.2248L131.243 16.2169L131.23 16.0339L131.215 15.831L131.214 15.8229L131.2 15.661L131.197 15.6172L131.183 15.4649L131.181 15.4451L131.179 15.43L131.164 15.2735L131.159 15.2298L131.144 15.082L131.141 15.0601L131.122 14.8934L131.121 14.8809L131.118 14.8578L131.098 14.6967L131.095 14.6684L131.076 14.5199L131.075 14.5144L131.073 14.4988L131.053 14.3538L131.048 14.3171L131.025 14.1649L131.024 14.1558L131.024 14.1545L130.999 13.9948L130.993 13.9558L130.974 13.8422L130.963 13.7752L130.941 13.647L130.934 13.6078L130.913 13.4907L130.905 13.4481C130.598 11.805 130.121 10.438 129.473 9.34788L129.464 9.33242L129.445 9.3017L129.436 9.28637L129.408 9.24061L129.399 9.22543L129.37 9.18009L129.361 9.16505L129.335 9.12355L129.294 9.06084L129.285 9.04615L129.275 9.03147L129.265 9.01679L129.226 8.95846L129.217 8.944L129.199 8.91803L129.198 8.91738C129.182 8.89312 129.165 8.86893 129.148 8.84495L129.13 8.81913C129.12 8.80615 129.072 8.74251 129.017 8.67047L129.017 8.66984C128.941 8.56917 128.853 8.45237 128.838 8.43462L128.779 8.3619L128.773 8.3548L128.713 8.28386L128.688 8.25506L128.646 8.20625L128.623 8.18128L128.582 8.13467L128.558 8.10835L128.513 8.0599L128.489 8.03329L128.452 7.9942L128.421 7.96192L128.38 7.91999L128.355 7.8941L128.308 7.84742L128.286 7.82606L128.243 7.78414L128.215 7.7571L128.213 7.75441C128.191 7.73376 128.169 7.71341 128.147 7.69305L128.146 7.69212C128.123 7.67027 128.099 7.64863 128.076 7.62721L128.059 7.61224L128.006 7.56527L127.976 7.53952L127.936 7.5044L127.896 7.47113L127.864 7.44424L127.83 7.41629L127.784 7.37876L127.759 7.3589L127.715 7.32357L127.679 7.29583L127.64 7.26625L127.607 7.24106L127.559 7.2058L127.531 7.1848L127.484 7.15082L127.454 7.12961L127.45 7.12649C127.426 7.10988 127.402 7.09335 127.379 7.07711L127.376 7.07562L127.302 7.02589L127.297 7.02248L127.278 7.01007L127.219 6.97112L127.145 6.92486L127.104 6.89918L127.062 6.87414L127.024 6.85101L126.987 6.82923L126.938 6.80106L126.907 6.78354L126.857 6.75566L126.828 6.73934L126.776 6.71139L126.737 6.69053L126.699 6.67081L126.647 6.64421L126.612 6.62675L126.58 6.61065L126.528 6.58525C126.501 6.57227 126.474 6.55943 126.447 6.54687C126.396 6.52346 126.346 6.50076 126.294 6.47855L126.279 6.47188L126.226 6.44932L126.186 6.43237L126.14 6.41364L126.103 6.39874L126.048 6.37718L126.017 6.36519L125.956 6.34213L125.933 6.33369L125.87 6.31113L125.84 6.30049L125.78 6.27956L125.752 6.27005L125.691 6.24969L125.671 6.2433C125.589 6.21691 125.507 6.1918 125.423 6.16818L125.357 6.14973L125.328 6.14192L125.261 6.12419L125.238 6.11809L125.167 6.10036L125.144 6.09467L125.071 6.07758L125.053 6.07332L124.978 6.05658L124.957 6.05197L124.882 6.03615L124.862 6.03218L124.791 6.01799L124.762 6.01238C124.613 5.98436 124.463 5.96017 124.31 5.93988L124.306 5.93931L124.232 5.93001L124.199 5.9259L124.129 5.91788L124.101 5.91477L124.028 5.90717L124.001 5.90455L123.919 5.89696L123.906 5.89582L123.82 5.88887L123.798 5.88724L123.717 5.88149C123.504 5.86744 123.286 5.86042 123.064 5.86042C120.602 5.86042 118.685 6.70692 117.307 8.40007C117.245 8.47555 117.185 8.55274 117.126 8.63177C117.405 9.02068 117.638 9.43081 117.826 9.86208C118.213 10.7483 118.406 11.7163 118.406 12.7652C118.406 13.3528 118.351 13.9284 118.242 14.4932C118.133 15.0552 117.97 15.6043 117.754 16.1414V16.1434C117.541 16.6684 117.263 17.2087 116.921 17.7647C116.583 18.3122 116.185 18.8685 115.729 19.4337C115.505 19.716 115.213 20.0419 114.855 20.4116C114.962 22.5869 115.259 24.4002 115.745 25.8498H118.406V29.248C119.703 30.2398 121.255 30.7359 123.064 30.7359C123.284 30.7359 123.501 30.7289 123.713 30.7153C124.351 30.6743 124.949 30.5716 125.509 30.4071L125.511 30.4064C125.656 30.3636 125.798 30.317 125.938 30.266C125.97 30.2541 126.003 30.2433 126.036 30.2325C126.121 30.2047 126.206 30.1768 126.28 30.1302L127.951 29.0916ZM126.17 18.5298C126.17 21.1707 126.029 23.115 125.76 24.3618C125.733 24.4908 125.703 24.6123 125.673 24.7264C125.421 25.6682 125.035 26.1771 124.59 26.5396L124.58 26.5475C124.124 26.9158 123.604 27.1004 123.024 27.1004C122.444 27.1004 121.929 26.9219 121.48 26.5591C121.03 26.1964 120.697 25.619 120.401 24.5306C120.105 23.4422 119.957 21.4438 119.957 18.5298C119.957 15.6216 120.123 13.5484 120.454 12.3218C120.579 11.8467 120.729 11.445 120.906 11.1168C121.083 10.7885 121.286 10.5337 121.513 10.3523C121.963 9.98371 122.484 9.7994 123.064 9.7994C123.643 9.7994 124.158 9.98371 124.608 10.3523C125.057 10.7151 125.43 11.4464 125.726 12.5349C126.022 13.6233 126.17 15.6216 126.17 18.5298Z" fill="#23376C"/>
    <path d="M127.812 30.2884C128.323 29.9193 128.789 29.4775 129.208 28.9631C130.087 27.8791 130.744 26.4571 131.178 24.6979C131.277 24.2944 131.365 23.873 131.442 23.4337C132.36 22.4334 133.51 21.3076 134.888 20.056C136.041 19.0098 136.958 18.1401 137.642 17.4473L137.666 17.4224L137.671 17.418L137.726 17.3614L137.728 17.3601L137.756 17.3314L137.783 17.303L137.785 17.3013L137.838 17.2468L137.842 17.2422L137.865 17.219L137.891 17.1914L137.899 17.184L137.918 17.164L137.944 17.1368L137.97 17.1099L138.007 17.0704L138.06 17.0151L138.07 17.0042L138.094 16.9783L138.111 16.9607L138.118 16.9527L138.142 16.9272L138.161 16.9072L138.166 16.902L138.21 16.8546L138.212 16.8521L138.235 16.8275L138.257 16.803L138.279 16.7789L138.301 16.755L138.303 16.7524L138.344 16.7077L138.348 16.7026L138.365 16.6843L138.392 16.6538L138.406 16.6383L138.435 16.606L138.446 16.5931L138.466 16.5708L138.476 16.5591L138.504 16.527L138.541 16.4839L138.555 16.4682L138.559 16.4627L138.577 16.4417L138.592 16.4241L138.595 16.4209L138.612 16.4003L138.646 16.3598L138.663 16.34L138.664 16.3388L138.679 16.3202L138.695 16.3007L138.698 16.2976L138.711 16.2814L138.726 16.2623L138.73 16.2573L138.756 16.2248L138.761 16.218L138.771 16.2064L138.792 16.1796L138.799 16.1702L138.813 16.1524L138.82 16.1422L138.826 16.1348L138.839 16.1174L138.852 16.1002L138.865 16.0833L138.874 16.0701L138.877 16.0665L138.889 16.0501L138.9 16.0355L138.912 16.0177L138.924 16.0018C139.592 15.0228 139.929 14.0553 139.929 13.0935C139.929 12.0339 139.639 11.2219 139.054 10.6518L139.026 10.6252L139.018 10.6174L139 10.6005L138.999 10.5992L138.982 10.5838L138.971 10.5735L138.964 10.5673L138.945 10.5509L138.942 10.5483L138.927 10.5347L138.908 10.5187L138.889 10.5028L138.885 10.499L138.87 10.4872L138.855 10.475L138.832 10.4564L138.826 10.4515L138.813 10.4413L138.796 10.4283L138.793 10.4263L138.773 10.4115L138.757 10.3998L138.754 10.3969L138.735 10.3833L138.734 10.3825L138.714 10.3683L138.704 10.3614L138.693 10.3542L138.673 10.3403L138.673 10.34L138.653 10.3266L138.641 10.3189L138.632 10.3131L138.611 10.2997L138.593 10.2881L138.59 10.2865L138.577 10.2781L138.575 10.2772L138.555 10.2649L138.534 10.2523L138.527 10.248L138.511 10.2389L138.505 10.2356L138.484 10.2233L138.478 10.22L138.462 10.2111L138.444 10.2015L138.44 10.1992L138.418 10.1874L138.396 10.1759L138.376 10.1656L138.374 10.1644L138.351 10.1532C138.332 10.1435 138.312 10.134 138.292 10.1246L138.283 10.1205L138.272 10.1151L138.26 10.11L138.237 10.0997L138.236 10.0991L138.214 10.0895L138.191 10.0795L138.167 10.0697L138.12 10.0506L138.096 10.0412L138.048 10.0232L138.023 10.0144L137.974 9.99737L137.949 9.98914L137.926 9.98162L137.925 9.98105L137.902 9.97381L137.899 9.97318L137.874 9.96544L137.863 9.96197L137.849 9.95793L137.824 9.95055L137.798 9.94338L137.773 9.93643L137.772 9.93636L137.747 9.92955C137.413 9.84271 137.046 9.79943 136.646 9.79943C135.628 9.79943 134.823 10.0989 134.22 10.6979C133.622 11.291 133.279 12.2815 133.184 13.6694L131.422 13.4983C131.351 13.1049 131.271 12.726 131.182 12.3621C130.846 10.9945 130.376 9.83377 129.772 8.88064C130.132 8.36722 130.556 7.92857 131.043 7.56499C132.569 6.43052 134.474 5.86042 136.764 5.86042C137.064 5.86042 137.357 5.87 137.642 5.88901L137.731 5.89526L137.748 5.89653C138.005 5.9159 138.255 5.943 138.499 5.97798L138.502 5.97847C138.994 6.04906 139.46 6.15122 139.9 6.28495L139.909 6.28771C139.963 6.30424 140.017 6.32127 140.07 6.33872L140.145 6.36377L140.173 6.37327L140.23 6.393L140.25 6.39981C140.322 6.42528 140.393 6.45167 140.463 6.47891L140.474 6.48302L140.531 6.50551L140.556 6.51523L140.622 6.54233L140.633 6.54659L140.694 6.57227L140.719 6.58306L140.775 6.60696L140.799 6.61782L140.853 6.64201L140.876 6.65258L140.934 6.67883L141.008 6.71423L141.009 6.71444L141.083 6.75034L141.149 6.78383L141.158 6.78808L141.216 6.81788L141.237 6.82902L141.288 6.85598L141.315 6.87073L141.361 6.89542L141.395 6.91436L141.435 6.93693L141.472 6.95849L141.511 6.98077L141.515 6.98282L141.582 7.02248L141.585 7.02418L141.654 7.06625L141.661 7.0703L141.723 7.1091L141.773 7.14117L141.799 7.15813L141.841 7.18551L141.872 7.20644L141.913 7.23411L141.94 7.25248L141.983 7.28206L142.015 7.3047L142.051 7.3303L142.111 7.37337L142.117 7.37812L142.187 7.42998L142.19 7.43233L142.208 7.44644L142.257 7.48362L142.282 7.50334L142.324 7.53661L142.352 7.55931L142.392 7.59167L142.42 7.61415L142.458 7.64657L142.487 7.67041L142.523 7.70135L142.555 7.72944L142.579 7.75029L142.62 7.78662C142.64 7.80471 142.661 7.82301 142.681 7.84146C144.113 9.16023 144.828 10.8015 144.828 12.7652L144.828 12.8176L144.828 12.8568L144.828 12.8698L144.828 12.8872L144.827 12.9176L144.827 12.9481L144.826 12.974L144.826 12.9784L144.825 13.0087L144.825 13.026L144.823 13.078L144.822 13.0996L144.821 13.1298L144.82 13.16L144.819 13.1815L144.818 13.1901L144.817 13.2203L144.816 13.2332L144.815 13.2504L144.814 13.2805L144.813 13.2848L144.812 13.3105L144.81 13.3406L144.808 13.3705L144.807 13.3877L144.806 13.4005L144.801 13.4604L144.799 13.4903L144.796 13.5202L144.794 13.5414L144.794 13.55L144.791 13.5798L144.788 13.6095L144.785 13.6435L144.782 13.6691L144.779 13.6945L144.779 13.6987L144.776 13.7284L144.772 13.758L144.769 13.7877L144.768 13.7961L144.762 13.8469L144.758 13.8764L144.755 13.8974L144.749 13.948L144.746 13.9648L144.742 13.9942L144.741 13.9985L144.734 14.0488L144.729 14.0824L144.724 14.1117L144.72 14.141L144.718 14.1494L144.715 14.1703L144.71 14.1995L144.705 14.2287L144.701 14.2495L144.7 14.2579L144.695 14.2871L144.683 14.3495L144.674 14.3993L144.673 14.4035L144.664 14.4491L144.662 14.4615L144.654 14.4988L144.65 14.5195L144.637 14.5774L144.633 14.5979L144.625 14.6351L144.622 14.6474L144.618 14.6639C144.518 15.1031 144.383 15.5334 144.213 15.9557C143.805 16.9635 143.154 18.0174 142.261 19.123C141.766 19.7457 140.925 20.5937 139.75 21.6712L139.729 21.6898L139.719 21.6991L139.699 21.7179L139.689 21.7272L139.687 21.7289L139.678 21.7367L139.668 21.746L139.658 21.7555L139.647 21.7648L139.627 21.7838L139.62 21.7894L139.616 21.7932L139.606 21.8026L139.596 21.8121L139.585 21.8216L139.575 21.8311L139.564 21.8406L139.554 21.8502L139.554 21.8504L139.533 21.8693L139.522 21.8788L139.512 21.8883L139.501 21.8979L139.491 21.9075L139.48 21.9171L139.469 21.9267L139.459 21.9364L139.448 21.946L139.438 21.9557L139.427 21.9653L139.418 21.9738L139.416 21.975L139.406 21.9846L139.395 21.9943L139.384 22.004L139.373 22.0138L139.352 22.0332L139.349 22.0362L139.341 22.043L139.33 22.0527L139.319 22.0625L139.308 22.0723L139.298 22.0821L139.287 22.0919L139.276 22.1017L139.265 22.1115L139.254 22.1214L139.243 22.1312L139.232 22.1411L139.221 22.151L139.21 22.1608L139.208 22.1623L139.199 22.1708L139.188 22.1807L139.177 22.1906L139.166 22.2006L139.144 22.2204L139.137 22.2262L139.121 22.2404L139.099 22.2604L139.088 22.2704L139.077 22.2804L139.066 22.2904L139.015 22.3359L138.994 22.3547L138.964 22.3809L138.922 22.4181L138.914 22.4257L138.864 22.47L138.852 22.4809L138.791 22.536L138.783 22.5431L138.723 22.5962L138.718 22.6012L138.714 22.6045L138.694 22.6227L138.67 22.6442L138.646 22.6652L138.646 22.6655L138.622 22.6869L138.579 22.7253L138.575 22.7292L138.552 22.7502L138.528 22.7712L138.513 22.7847L138.505 22.7921L138.436 22.8542L138.39 22.8952L138.383 22.9015L138.368 22.9155L138.323 22.956L138.32 22.9588L138.301 22.9761L138.257 23.0155L138.256 23.0161L138.212 23.0557L138.195 23.0715L138.191 23.0754L138.169 23.095L138.134 23.1268L138.126 23.1339L138.083 23.1725L138.073 23.1814L138.041 23.2108L138.02 23.2298L137.958 23.2863L137.955 23.2887L137.897 23.3413L137.897 23.3421L137.84 23.3932L137.836 23.397L137.816 23.4152L137.797 23.4333L137.784 23.4444L137.777 23.4512L137.757 23.4692L137.729 23.495L137.718 23.5047L137.699 23.5224L137.68 23.5399L137.674 23.5449L137.642 23.5748C136.903 24.2528 136.401 24.7374 136.137 25.0316C135.723 25.4808 135.391 25.9243 135.137 26.3504H144.828V30.7387H127.753C127.759 30.6776 127.794 30.4032 127.812 30.2884Z" fill="#23376C"/>
    <path fill-rule="evenodd" clip-rule="evenodd" d="M145.28 13.7165L150.743 5.89497H154.837V21.6166H157.997V25.763H154.837V30.7387H150.116V25.763H139.75V22.3455C140.379 21.7764 140.92 21.2683 141.372 20.821C141.921 20.2783 142.348 19.8161 142.652 19.4337C143.108 18.8685 143.505 18.3122 143.843 17.7647C144.186 17.2087 144.464 16.6684 144.677 16.1434V16.1414C144.893 15.6043 145.056 15.0552 145.165 14.4932C145.214 14.2365 145.253 13.9777 145.28 13.7165ZM150.116 21.6166V13.1684L144.306 21.6166H150.116Z" fill="#23376C"/>
    <path d="M18.295 0C28.3991 0 36.5901 8.1909 36.5901 18.295C36.5901 28.3991 28.3991 36.59 18.295 36.59C8.19097 36.59 0 28.3991 0 18.295C0 18.2632 0.0010636 18.2317 0.00120549 18.1999C0.0526398 26.1024 6.47377 32.4928 14.3883 32.4928C22.3348 32.4928 28.7766 26.0509 28.7766 18.1044C28.7766 10.158 22.3348 3.71618 14.3883 3.71618C6.96052 3.71618 0.84785 9.3448 0.0815854 16.5694C0.951144 7.27473 8.77299 0 18.295 0Z" fill="url(#paint0_radial_664_707)"/>
    <path d="M17.8166 31.805C16.7251 32.0693 15.5848 32.2093 14.4118 32.2093C12.2659 32.2093 10.2298 31.7407 8.40068 30.9005C6.88924 30.1958 5.52261 29.2325 4.35768 28.0676C1.79421 25.5041 0.207342 21.9638 0.203198 18.0529H0.207333L0.207215 18.0474H0.207496L0.203551 17.8561L0.203125 17.754C0.203125 17.3952 0.224836 17.0415 0.267015 16.6941L0.267437 16.6941C0.508316 14.7095 1.4173 12.9309 2.76258 11.5902C4.1075 10.2498 5.88886 9.34658 7.87487 9.11225C8.14828 9.08051 8.41337 9.06378 8.68769 9.05395C8.76018 9.05217 8.83289 9.05127 8.90581 9.05127L8.91115 9.05131C8.93019 9.05131 8.94922 9.05137 8.96823 9.05149C9.94749 9.05836 10.8877 9.2267 11.7634 9.53113C12.6341 9.8338 13.442 10.2708 14.1619 10.8171C13.1199 11.6308 12.2588 12.6643 11.6487 13.8476C11.6124 13.9151 11.5769 13.9831 11.5423 14.0515C10.9119 15.297 10.5566 16.7052 10.5566 18.196C10.5566 19.5542 10.8517 20.8443 11.3812 22.0054C11.9151 23.1762 12.6876 24.2154 13.6363 25.0607L13.635 25.0615C13.8427 25.2452 14.0479 25.4115 14.269 25.5799C14.3548 25.6427 14.4404 25.7046 14.5275 25.7656C14.7111 25.8913 14.8931 26.0079 15.0836 26.1222C15.148 26.1598 15.2121 26.1969 15.277 26.2336L15.476 26.3417C15.5421 26.376 15.6075 26.4096 15.6739 26.443L15.8746 26.5397C16.0791 26.6335 16.2819 26.7195 16.4917 26.8007L16.7042 26.8784C16.9201 26.9528 17.1323 27.0188 17.3521 27.08C17.4259 27.0996 17.4967 27.1175 17.5706 27.136L17.7962 27.1883L18.0187 27.2337C18.0945 27.2476 18.1698 27.2613 18.2458 27.2742C18.3228 27.2864 18.3988 27.2983 18.4759 27.3094C18.5522 27.3197 18.6265 27.329 18.7028 27.3384C18.8586 27.355 19.013 27.369 19.1693 27.3797C19.2476 27.3841 19.3254 27.3881 19.4038 27.3915C19.4844 27.394 19.5643 27.3961 19.6449 27.3976L19.76 27.3987C20.0379 27.3959 20.3045 27.3851 20.581 27.3624C20.8162 27.3396 21.046 27.3105 21.2792 27.2734C21.4756 27.2399 21.6657 27.2007 21.8599 27.1574C21.9617 27.1329 22.0613 27.1081 22.1623 27.0814C22.3822 27.0208 22.5967 26.9543 22.8122 26.8796C23.0278 26.802 23.2346 26.7206 23.4452 26.6301C23.903 26.4262 24.3058 26.2065 24.73 25.941L24.8828 25.8404C25.2656 25.5788 25.6042 25.3128 25.9494 25.0033C26.085 24.8781 26.2158 24.7531 26.3447 24.6211C26.3951 24.5696 26.4438 24.5183 26.4911 24.4677C26.541 24.414 26.5889 24.3616 26.634 24.3105C26.6879 24.2498 26.7406 24.1891 26.7927 24.127C26.8435 24.0668 26.89 24.0104 26.9325 23.9575C26.9785 23.9003 27.0237 23.8426 27.0679 23.7849C27.1804 23.6379 27.2851 23.4892 27.3902 23.3369C27.4879 23.189 27.5833 23.0421 27.6734 22.8893C27.7133 22.8221 27.7526 22.7539 27.791 22.6852L27.7952 22.6777C26.8919 25.2885 25.2477 27.5536 23.114 29.2212C21.5723 30.426 19.7749 31.3189 17.8166 31.805Z" fill="url(#paint1_radial_664_707)"/>
    <path d="M10.8387 4.38762C11.9302 4.12336 13.0704 3.98331 14.2435 3.98331C16.3894 3.98331 18.4255 4.45194 20.2546 5.29217C21.766 5.99686 23.1327 6.9601 24.2976 8.12503C26.8611 10.6885 28.4479 14.2288 28.4521 18.1398H28.4479L28.4481 18.1452H28.4478L28.4517 18.3366L28.4521 18.4387C28.4521 18.7974 28.4304 19.1511 28.3883 19.4985L28.3878 19.4985C28.147 21.4831 27.238 23.2617 25.8927 24.6024C24.5478 25.9428 22.7664 26.846 20.7804 27.0804C20.507 27.1121 20.2419 27.1289 19.9676 27.1387C19.8951 27.1405 19.8224 27.1414 19.7495 27.1414L19.7441 27.1413C19.7251 27.1413 19.7061 27.1413 19.687 27.1411C18.7078 27.1343 17.7676 26.9659 16.8918 26.6615C16.0211 26.3588 15.2133 25.9218 14.4934 25.3755C15.5353 24.5618 16.3965 23.5283 17.0065 22.345C17.0429 22.2775 17.0784 22.2096 17.113 22.1411C17.7434 20.8956 18.0987 19.4874 18.0987 17.9967C18.0987 16.6384 17.8036 15.3483 17.2741 14.1872C16.7401 13.0165 15.9677 11.9773 15.019 11.132L15.0203 11.1311C14.8126 10.9474 14.6073 10.7811 14.3862 10.6127C14.3004 10.5499 14.2149 10.488 14.1278 10.427C13.9442 10.3014 13.7622 10.1847 13.5717 10.0705C13.5073 10.0328 13.4432 9.99573 13.3782 9.95907L13.1792 9.85092C13.1132 9.81665 13.0478 9.78301 12.9813 9.74958L12.7807 9.65289C12.5761 9.55909 12.3734 9.47316 12.1636 9.39195L11.951 9.31426C11.7352 9.23981 11.523 9.1738 11.3031 9.11258C11.2294 9.09302 11.1586 9.07508 11.0847 9.05664L10.8591 9.00435L10.6366 8.95897C10.5607 8.94503 10.4854 8.9313 10.4094 8.91843C10.3325 8.90618 10.2564 8.89436 10.1794 8.88324C10.1031 8.87297 10.0288 8.86361 9.95251 8.85425C9.79664 8.83764 9.64232 8.82364 9.48596 8.81295C9.40763 8.80851 9.32987 8.8045 9.25148 8.80112C9.17091 8.79859 9.09097 8.79655 9.01039 8.79507L8.89526 8.79395C8.61736 8.79669 8.35081 8.80753 8.07432 8.83026C7.83907 8.85306 7.60924 8.88212 7.37603 8.91927C7.17962 8.9527 6.98955 8.99197 6.7954 9.03525C6.69357 9.05974 6.594 9.08458 6.49294 9.11125C6.27311 9.17184 6.05855 9.23834 5.84307 9.313C5.62745 9.39062 5.4207 9.47204 5.21008 9.56253C4.75224 9.7664 4.34944 9.98617 3.92525 10.2516L3.77248 10.3522C3.38967 10.6139 3.05111 10.8799 2.70587 11.1894C2.57026 11.3145 2.43952 11.4395 2.31052 11.5715C2.26021 11.6231 2.21144 11.6744 2.16422 11.725C2.11425 11.7787 2.06641 11.831 2.0213 11.8822C1.9674 11.9428 1.91469 12.0035 1.86254 12.0656C1.81181 12.1258 1.76522 12.1822 1.72279 12.2351C1.67677 12.2923 1.63159 12.35 1.58733 12.4078C1.47487 12.5547 1.37016 12.7034 1.26509 12.8558C1.16742 13.0036 1.07199 13.1505 0.981852 13.3033C0.941948 13.3705 0.902689 13.4387 0.864265 13.5074L0.860033 13.515C1.76337 10.9041 3.40761 8.639 5.54131 6.97145C7.08298 5.76659 8.88041 4.87368 10.8387 4.38762Z" fill="url(#paint2_radial_664_707)"/>
    <defs>
        <radialGradient id="paint0_radial_664_707" cx="0" cy="0" r="1" gradientUnits="userSpaceOnUse" gradientTransform="translate(29.0195 29.3236) rotate(-121.035) scale(12.9248 12.0693)">
            <stop stop-color="#2461A9"/>
            <stop offset="1" stop-color="#23376C"/>
        </radialGradient>
        <radialGradient id="paint1_radial_664_707" cx="0" cy="0" r="1" gradientUnits="userSpaceOnUse" gradientTransform="translate(20.9999 30.5) rotate(-133.452) scale(26.1725 17.8708)">
            <stop stop-color="#0EE5CD"/>
            <stop offset="1" stop-color="#0094F1"/>
        </radialGradient>
        <radialGradient id="paint2_radial_664_707" cx="0" cy="0" r="1" gradientUnits="userSpaceOnUse" gradientTransform="translate(5.99988 7) rotate(50.4774) scale(25.9278 17.7651)">
            <stop stop-color="#0EE5CD"/>
            <stop offset="1" stop-color="#0094F1"/>
        </radialGradient>
    </defs>
</svg>
